<?xml version="1.0" encoding="utf-8"?>
<!-- Generator: Adobe Illustrator 16.0.0, SVG Export Plug-In . SVG Version: 6.00 Build 0)  -->
<!DOCTYPE svg PUBLIC "-//W3C//DTD SVG 1.1 Tiny//EN" "http://www.w3.org/Graphics/SVG/1.1/DTD/svg11-tiny.dtd">
<svg version="1.1" baseProfile="tiny" id="图层_1"
	 xmlns="http://www.w3.org/2000/svg" xmlns:xlink="http://www.w3.org/1999/xlink" x="0px" y="0px" width="200px" height="200px"
	 viewBox="0 0 200 200" overflow="scroll" xml:space="preserve">
<path fill-rule="evenodd" d="M141.714,88.741c-2.431,10.903-4.579,21.879-7.484,32.653c-0.731,2.713-3.427,5.921-5.995,6.935
	c-10.521,4.148-21.251,7.854-32.117,10.984c-2.758,0.795-7.08-0.16-9.346-1.978c-8.71-6.988-17.121-14.403-25.084-22.228
	c-2.169-2.131-3.683-6.44-3.252-9.43c1.589-11.046,3.807-22.035,6.504-32.869c0.703-2.823,3.521-6.209,6.186-7.262
	c10.517-4.156,21.274-7.775,32.14-10.915c2.64-0.763,6.771,0.131,8.938,1.862c8.612,6.88,16.742,14.366,24.999,21.684
	C140.297,80.922,141.603,84.391,141.714,88.741z"/>
<path fill-rule="evenodd" d="M98.348,188.895c-8.791-1.913-18.972-4.048-29.108-6.375c-3.757-0.864-5.892-3.539-7.021-7.233
	c-4.153-13.6-6.837-27.437-6.892-41.695c-0.006-1.618,0.79-3.24,1.213-4.859c1.472,0.759,3.225,1.223,4.374,2.321
	c22.193,21.226,48.313,34.914,78.378,41.109c0.721,0.148,1.503,0.204,2.134,0.536c0.979,0.516,1.854,1.232,2.772,1.862
	c-0.721,0.995-1.23,2.494-2.198,2.902c-6.228,2.625-12.396,5.637-18.894,7.311C115.602,186.706,107.774,187.391,98.348,188.895z"/>
<path fill-rule="evenodd" d="M49.886,77.684c-1.364,10.79-3.236,21.544-3.982,32.377c-1.373,19.911,1.419,39.39,7.838,58.317
	c0.048,0.141,0.124,0.279,0.129,0.421c0.056,1.66,0.099,3.319,0.146,4.979c-1.716-0.479-3.774-0.514-5.09-1.52
	c-5.138-3.923-10.472-7.735-14.952-12.349c-12.736-13.116-20.741-28.82-24.136-46.849c-0.68-3.609-0.061-6.666,2.458-9.39
	c9.967-10.77,21.092-20.131,33.687-27.688c1.14-0.684,2.687-0.881,4.045-0.879c0.34,0.001,0.677,1.655,1.017,2.548
	C50.658,77.664,50.272,77.674,49.886,77.684z"/>
<path fill-rule="evenodd" d="M191.392,102.181c-2.411,26.381-13.106,47.302-32.289,63.898c-2.773,2.402-5.811,3.076-9.43,2.264
	c-14.027-3.141-27.39-8.043-39.999-14.931c-1.386-0.757-2.318-2.346-3.461-3.548c1.438-0.871,2.771-2.105,4.328-2.56
	c29.299-8.519,54.211-23.992,74.672-46.658c1.242-1.375,3.189-2.113,4.809-3.147C190.572,99.378,191.122,101.257,191.392,102.181z"
	/>
<path fill-rule="evenodd" d="M190.225,83.413c-0.527,1.059-1.13,3.291-2.498,4.848c-9.8,11.147-21.107,20.549-33.799,28.241
	c-1.213,0.736-2.918,0.665-4.393,0.969c-0.053-1.546-0.464-3.181-0.1-4.623c5.076-20.112,6.617-40.469,3.274-60.951
	c-1.606-9.851-4.588-19.473-6.849-29.222c-0.27-1.165,0.078-2.473,0.141-3.715c1.22,0.23,2.665,0.115,3.626,0.742
	c22.331,14.559,35.605,35.127,40.405,61.266C190.111,81.4,190.105,81.849,190.225,83.413z"/>
<path fill-rule="evenodd" d="M94.268,42.783c-2.323,1.008-3.813,1.854-5.412,2.32c-29.634,8.64-54.665,24.502-75.108,47.64
	c-0.974,1.103-2.539,1.683-3.828,2.506c-0.459-1.587-1.404-3.206-1.304-4.757c1.688-26.102,12.944-47.421,32.805-64.204
	c1.765-1.493,5.017-2.369,7.28-1.943c14.87,2.802,28.912,8.074,42.157,15.402C91.912,40.331,92.71,41.375,94.268,42.783z"/>
<path fill-rule="evenodd" d="M54.563,17.928c2.4-1.709,3.652-2.888,5.127-3.608c22.852-11.164,46.329-12.245,70.368-4.293
	c3.813,1.261,6.154,3.618,7.323,7.515c3.954,13.179,6.62,26.567,6.849,40.356c0.031,1.895-0.802,3.805-1.234,5.708
	c-1.557-0.942-3.346-1.638-4.634-2.861c-22.027-20.894-47.845-34.501-77.588-40.667C59.043,19.719,57.404,18.926,54.563,17.928z"/>
</svg>
