<?xml version="1.0" encoding="utf-8"?>
<!-- Generator: Adobe Illustrator 16.0.0, SVG Export Plug-In . SVG Version: 6.00 Build 0)  -->
<!DOCTYPE svg PUBLIC "-//W3C//DTD SVG 1.1//EN" "http://www.w3.org/Graphics/SVG/1.1/DTD/svg11.dtd">
<svg version="1.1" id="图层_1" xmlns="http://www.w3.org/2000/svg" xmlns:xlink="http://www.w3.org/1999/xlink" x="0px" y="0px"
	 width="200px" height="200px" viewBox="0 0 200 200" enable-background="new 0 0 200 200" xml:space="preserve">
<path fill-rule="evenodd" clip-rule="evenodd" d="M99.422,1.65c28.069,0.391,51.362,10.163,70.49,29.615
	c16.05,16.325,25.354,35.971,27.398,58.744c2.436,27.101-5.162,51.277-22.575,72.272c-6.141,7.405-13.219,13.793-21.232,19.122
	c-8.167,5.432-16.696,9.922-26.249,12.739c-10.059,2.969-20.191,4.495-30.562,4.164c-6.183-0.198-12.411-0.744-18.388-2.833
	c-5.365-1.872-10.961-3.126-16.229-5.222c-3.719-1.479-7.213-3.688-10.539-5.964c-5.282-3.618-10.512-7.354-15.45-11.421
	c-7.374-6.071-13.515-13.337-18.413-21.526c-18.479-30.897-20.726-63.066-4.738-95.295C27.739,26.199,52.495,8.511,85.502,2.761
	c1.296-0.228,2.609-0.38,3.922-0.475C93.021,2.03,96.619,1.824,99.422,1.65z M100.897,112.954c0.336,0.437,1.001,1.31,1.677,2.173
	c0.682,0.875,1.346,1.768,2.063,2.607c8.504,9.92,18.829,16.469,32.291,16.347c21.258-0.195,35.688-17.354,35.129-35.517
	c-0.572-18.666-16.091-33.828-35.818-33.589c-10.777,0.129-19.91,4.456-27.459,12.054c-2.96,2.979-5.632,6.244-8.313,9.243
	c-3.351-3.615-6.575-7.512-10.224-10.956C77.835,63.603,59.027,61.69,44.847,70.499c-15.022,9.331-20.632,29.43-12.417,44.487
	c10.735,19.67,35.557,25.314,53.74,11.835C91.499,122.869,95.92,117.7,100.897,112.954z"/>
<path fill-rule="evenodd" clip-rule="evenodd" d="M65.608,121.87c-9.901-0.399-16.843-3.688-21.385-10.964
	c-4.587-7.35-4.53-14.98-0.194-22.481c6.434-11.132,21.706-14.444,33.431-7.273C84.413,85.4,89.203,91.627,93.1,98.622
	c0.26,0.469,0.357,1.313,0.11,1.737c-4.822,8.269-10.429,15.826-19.747,19.466C70.536,120.968,67.345,121.432,65.608,121.87z
	 M54.351,102.983c7.184,0,14.086,0,21.165,0c0-2.32,0-4.488,0-6.763c-7.134,0-14.08,0-21.165,0
	C54.351,98.523,54.351,100.634,54.351,102.983z"/>
<path fill-rule="evenodd" clip-rule="evenodd" d="M136.961,121.799c-10.529-0.346-17.75-5.629-23.697-13.029
	c-1.988-2.477-3.639-5.234-5.317-7.94c-0.359-0.583-0.495-1.685-0.186-2.246c4.495-8.17,10.14-15.233,18.939-19.173
	c14.336-6.42,30.462,2.079,33.032,17.423c1.874,11.183-7.411,23.087-19.19,24.594C139.169,121.604,137.787,121.716,136.961,121.799z
	 M132.134,103.136c0,2.56,0,4.739,0,7.102c2.422,0,4.585,0,7.041,0c0-2.366,0-4.606,0-7.164c2.459,0,4.626,0,6.883,0
	c0-2.491,0-4.647,0-7.093c-2.373,0-4.542,0-6.987,0c0-2.465,0-4.641,0-6.913c-2.44,0-4.594,0-7.044,0c0,2.377,0,4.55,0,7.018
	c-2.464,0-4.635,0-6.857,0c0,2.472,0,4.636,0,7.05C127.478,103.136,129.598,103.136,132.134,103.136z"/>
</svg>
