<?xml version="1.0" encoding="utf-8"?>
<!-- Generator: Adobe Illustrator 16.0.0, SVG Export Plug-In . SVG Version: 6.00 Build 0)  -->
<!DOCTYPE svg PUBLIC "-//W3C//DTD SVG 1.1//EN" "http://www.w3.org/Graphics/SVG/1.1/DTD/svg11.dtd">
<svg version="1.1" id="图层_1" xmlns="http://www.w3.org/2000/svg" xmlns:xlink="http://www.w3.org/1999/xlink" x="0px" y="0px"
	 width="200px" height="200px" viewBox="0 0 200 200" enable-background="new 0 0 200 200" xml:space="preserve">
<path fill-rule="evenodd" clip-rule="evenodd" d="M33.151,35.122c-16.85,44.441,7.702,85.517,36.636,106.345
	c29.507,21.242,83.843,28.895,116.57-3.204c-0.764,1.572-1.384,3.237-2.313,4.705c-15.462,24.408-37.779,37.094-66.467,39.354
	c-55.942,4.409-99.512-39.934-105.919-83.315C8.051,74.586,14.273,53.331,33.151,35.122z"/>
<path fill-rule="evenodd" clip-rule="evenodd" d="M78.444,20.897c-8.818,35.395,4.044,61.256,33.287,78.418
	c27.436,16.102,54.735,15.161,79.802-7.418c-0.782,1.625-1.438,3.325-2.364,4.863c-11.685,19.413-29.493,27.898-51.536,28.978
	c-34.026,1.665-66.732-24.019-73.02-57.46C61.326,50.791,66.137,33.521,78.444,20.897z"/>
<path fill-rule="evenodd" clip-rule="evenodd" d="M117.37,11.164c-4.144,21.742,4.205,37.855,22.507,48.154
	c14.907,8.389,30.673,10.2,45.771-1.599c-5.009,11.705-17.463,18.38-32.875,17.961c-18.458-0.501-35.438-12.654-41.745-29.876
	C106.402,33.174,108.901,18.775,117.37,11.164z"/>
</svg>
