<?xml version="1.0" encoding="utf-8"?>
<!-- Generator: Adobe Illustrator 16.0.0, SVG Export Plug-In . SVG Version: 6.00 Build 0)  -->
<!DOCTYPE svg PUBLIC "-//W3C//DTD SVG 1.1//EN" "http://www.w3.org/Graphics/SVG/1.1/DTD/svg11.dtd">
<svg version="1.1" id="图层_1" xmlns="http://www.w3.org/2000/svg" xmlns:xlink="http://www.w3.org/1999/xlink" x="0px" y="0px"
	 width="200px" height="200px" viewBox="0 0 200 200" enable-background="new 0 0 200 200" xml:space="preserve">
<g>
	<path d="M0,196.525c0-64.352,0-128.7,0-193.05c66,0,132,0,198,0c0,64.35,0,128.7,0,193.05c-0.33-0.006-0.659-0.019-0.988-0.019
		c-65.342,0-130.682,0-196.023,0C0.659,196.508,0.33,196.52,0,196.525z M186.25,184.895c0-56.64,0-113.209,0-169.758
		c-58.218,0-116.373,0-174.517,0c0,56.619,0,113.169,0,169.758C69.919,184.895,128.057,184.895,186.25,184.895z"/>
	<path d="M68.47,124.563c0.439,0,0.788,0,1.137,0c10.668,0,21.337,0,32.004,0c0.275,0,0.552,0.011,0.826,0
		c0.709-0.024,0.92,0.324,0.801,0.987c-0.516,2.894-1.021,5.789-1.525,8.685c-0.15,0.865-0.287,1.733-0.443,2.6
		c-0.193,1.064-0.461,1.298-1.535,1.301c-2.777,0.008-5.554,0.004-8.331,0.004c-11.934,0-23.867,0-35.8,0
		c-0.33,0-0.66-0.005-0.989-0.019c-0.589-0.024-0.902-0.354-0.966-0.925c-0.025-0.217-0.017-0.438-0.017-0.658
		c0-29.256,0-58.511,0-87.767c0-0.165,0-0.33,0.003-0.495c0.014-0.693,0.333-1.071,1.062-1.07c4.289,0.004,8.579,0.006,12.868-0.002
		c0.629-0.001,0.911,0.286,0.902,0.898c-0.004,0.302,0.003,0.605,0.003,0.907c0,24.774,0,49.548,0.001,74.321
		C68.47,123.707,68.47,124.085,68.47,124.563z"/>
	<path d="M115.836,108.518c0-9.021,0.014-18.04-0.014-27.06c-0.004-1.426-0.184-2.852-0.286-4.278
		c-0.082-1.139,0.019-1.321,1.075-1.727c5.51-2.114,11.199-3.542,17.018-4.486c4.133-0.67,8.289-1.04,12.477-1.056
		c1.261-0.004,1.369,0.091,1.369,1.342c0.002,3.658,0.004,7.315,0,10.973c0,1.146-0.139,1.293-1.285,1.262
		c-4.438-0.12-8.848,0.096-13.209,0.986c-2.229,0.455-2.229,0.447-2.229,2.695c0,16.226,0.001,32.45,0.001,48.675
		c0,0.303,0.002,0.605-0.001,0.907c-0.01,1.256-0.131,1.384-1.358,1.386c-2.642,0.004-5.281,0.002-7.92,0
		c-1.404,0-2.807,0.004-4.209-0.001c-1.193-0.004-1.334-0.136-1.336-1.323c-0.005-4.646-0.002-9.295-0.002-13.941
		c0.002-4.784,0-9.569,0-14.354C115.896,108.518,115.865,108.518,115.836,108.518z"/>
</g>
</svg>
