<?xml version="1.0" encoding="utf-8"?>
<!-- Generator: Adobe Illustrator 16.0.0, SVG Export Plug-In . SVG Version: 6.00 Build 0)  -->
<!DOCTYPE svg PUBLIC "-//W3C//DTD SVG 1.1//EN" "http://www.w3.org/Graphics/SVG/1.1/DTD/svg11.dtd">
<svg version="1.1" id="图层_1" xmlns="http://www.w3.org/2000/svg" xmlns:xlink="http://www.w3.org/1999/xlink" x="0px" y="0px"
	 width="200px" height="200px" viewBox="0 0 200 200" enable-background="new 0 0 200 200" xml:space="preserve">
<path fill-rule="evenodd" clip-rule="evenodd" d="M188.444-0.021c-0.813,9.292-1.577,18.174-2.373,27.053
	c-4.414,49.247-8.899,98.488-13.141,147.75c-0.348,4.037-1.847,5.551-5.509,6.566c-21.697,6.012-43.324,12.275-65.005,18.344
	c-1.623,0.453-3.598,0.434-5.224-0.023c-21.675-6.096-43.3-12.365-64.985-18.422c-3.274-0.916-4.836-2.305-5.151-5.885
	C21.962,117.332,16.737,59.315,11.558,1.293c-0.027-0.296,0.18-0.613,0.403-1.314C70.474-0.021,129.108-0.021,188.444-0.021z
	 M96.066,55.552c0.111,0.449,0.221,0.897,0.332,1.346c-1.116,0.59-2.199,1.257-3.354,1.757
	c-11.682,5.053-23.39,10.047-35.059,15.131c-4.327,1.886-10.363,2.901-12.356,6.252c-2.09,3.513-0.41,9.365-0.115,14.178
	c0.495,8.119,0.583,7.881,8.482,7.891c23.152,0.035,46.304,0.307,69.456,0.391c3.148,0.012,4.435,1.117,4.194,4.334
	c-0.484,6.504-0.938,13.021-1.072,19.539c-0.066,3.219-1.474,4.557-4.391,5.404c-7.354,2.135-14.614,4.592-21.945,6.807
	c-1.184,0.357-2.584,0.355-3.815,0.135c-7.068-1.262-14.099-2.73-21.175-3.941c-3.328-0.57-4.679-2.273-4.727-5.611
	c-0.048-3.252-0.711-6.492-0.835-9.748c-0.111-2.928-1.455-4.037-4.285-3.973c-4.405,0.102-8.82,0.189-13.218-0.01
	c-3.577-0.162-4.483,1.275-4.088,4.674c0.941,8.098,1.744,16.219,2.267,24.352c0.242,3.754,1.895,5.371,5.437,6.234
	c13.475,3.279,26.853,6.969,40.355,10.129c3.168,0.742,6.831,0.627,10.007-0.148c12.83-3.146,25.528-6.828,38.348-10.025
	c3.608-0.898,5.111-2.609,5.4-6.26c1.395-17.561,3.112-35.098,4.433-52.665c0.904-12.056,0.697-12.051-11.382-12.02
	c-10.658,0.029-21.316,0.007-31.976,0.007c13.137-6.625,26.335-12.573,39.69-18.146c4.369-1.824,7.137-3.959,6.881-9.185
	c-0.174-3.549,0.569-7.141,0.886-10.717c0.609-6.894,0.604-6.947-6.53-6.917c-32.632,0.141-65.271-0.033-97.892,0.619
	c-17.191,0.344-14.793-3.31-12.878,15.341c0.397,3.869,2.114,4.832,5.646,4.81c14.69-0.094,29.38,0.007,44.07,0.035
	C92.593,55.555,94.329,55.552,96.066,55.552z"/>
</svg>
