<?xml version="1.0" encoding="utf-8"?>
<!-- Generator: Adobe Illustrator 16.0.0, SVG Export Plug-In . SVG Version: 6.00 Build 0)  -->
<!DOCTYPE svg PUBLIC "-//W3C//DTD SVG 1.1//EN" "http://www.w3.org/Graphics/SVG/1.1/DTD/svg11.dtd">
<svg version="1.1" id="图层_1" xmlns="http://www.w3.org/2000/svg" xmlns:xlink="http://www.w3.org/1999/xlink" x="0px" y="0px"
	 width="200px" height="200px" viewBox="0 0 200 200" enable-background="new 0 0 200 200" xml:space="preserve">
<path fill-rule="evenodd" clip-rule="evenodd" d="M195,195c-62.686,0-125.353,0-188,0C7,132.314,7,69.647,7,7
	c62.686,0,125.354,0,188,0C195,69.686,195,132.354,195,195z M101.787,22.247c0,0.025,0,0.05,0,0.075
	c-25.373,0-50.746-0.002-76.119,0.002c-4.717,0-4.731,0.013-4.735,4.621c-0.041,49.431-0.079,98.863-0.114,148.294
	c-0.003,4.316,0.17,4.529,4.369,4.53c50.948,0.011,101.895,0.012,152.843,0.001c4.072-0.001,4.284-0.239,4.286-4.301
	c0.024-49.532,0.043-99.065,0.056-148.597c0.001-4.62-0.022-4.625-4.771-4.625C152.33,22.246,127.059,22.247,101.787,22.247z"/>
<path fill-rule="evenodd" clip-rule="evenodd" d="M51.195,96.565c0-12.23,0.074-24.462-0.055-36.691
	c-0.029-2.835,0.768-3.986,3.727-3.937c8.973,0.15,17.989-0.43,26.914,0.243c12.804,0.966,21.904,11.581,22.485,24.383
	c0.473,10.404-2.882,18.799-11.232,25.097c-4.495,3.389-9.708,4.908-15.199,5.464c-2.703,0.272-5.458,0.208-8.178,0.074
	c-2.364-0.116-3.281,0.806-3.259,3.147c0.059,6.367-0.139,12.739,0.041,19.102c0.084,2.985-0.744,4.306-3.899,4.02
	c-2.507-0.227-5.062-0.205-7.574-0.017c-2.755,0.206-3.723-0.78-3.688-3.588c0.118-9.298,0.011-18.598-0.006-27.897
	c-0.006-3.134-0.001-6.267-0.001-9.4C51.247,96.565,51.221,96.565,51.195,96.565z M66.506,82.969c-0.012,0-0.024,0-0.036,0
	c0,4.233-0.118,8.473,0.085,12.696c0.049,1.024,0.984,2.673,1.806,2.883c4.848,1.237,9.729,0.771,14.003-1.805
	c5.265-3.172,7.644-10.906,6.008-17.8c-1.748-7.368-5.439-10.848-12.736-11.73c-2.084-0.252-4.223-0.073-6.336-0.05
	c-2.028,0.022-2.829,1.138-2.808,3.104C66.537,74.5,66.506,78.735,66.506,82.969z"/>
<path fill-rule="evenodd" clip-rule="evenodd" d="M148.268,89.726c-4.77-1.298-8.819-2.405-12.874-3.496
	c-0.485-0.131-0.993-0.202-1.494-0.244c-4.461-0.368-7.765,1.466-8.439,4.673c-0.604,2.87,1.913,6.021,5.88,7.433
	c6.046,2.151,11.681,4.995,16.233,9.67c5.927,6.087,5.785,17.741-0.299,23.66c-8.108,7.887-17.766,8.46-27.918,5.547
	c-8.804-2.525-10.363-5.56-8.671-14.818c0.389-2.129,1.435-1.694,2.8-0.977c5.047,2.654,10.313,4.655,16.101,4.773
	c4.072,0.083,6.641-1.503,7.163-4.21c0.617-3.199-1.557-5.624-5.241-7.487c-5.446-2.756-11.217-5.38-15.747-9.326
	c-8.57-7.466-6.509-21.454,3.548-27.322c8.824-5.148,17.914-4.708,26.954-0.45c0.81,0.382,1.872,1.321,1.915,2.053
	C148.38,82.677,148.268,86.166,148.268,89.726z"/>
</svg>
