<?xml version="1.0" encoding="utf-8"?>
<!-- Generator: Adobe Illustrator 16.0.0, SVG Export Plug-In . SVG Version: 6.00 Build 0)  -->
<!DOCTYPE svg PUBLIC "-//W3C//DTD SVG 1.1//EN" "http://www.w3.org/Graphics/SVG/1.1/DTD/svg11.dtd">
<svg version="1.1" id="图层_1" xmlns="http://www.w3.org/2000/svg" xmlns:xlink="http://www.w3.org/1999/xlink" x="0px" y="0px"
	 width="200px" height="200px" viewBox="0 0 200 200" enable-background="new 0 0 200 200" xml:space="preserve">
<path fill-rule="evenodd" clip-rule="evenodd" d="M200,15.509c-0.63,0.958-1.31,1.888-1.885,2.878
	c-31.724,54.711-63.439,109.428-95.16,164.142c-0.528,0.911-1.109,1.792-1.902,3.067c-0.802-1.223-1.453-2.117-2.005-3.068
	C67.324,127.815,35.609,73.099,3.885,18.388C3.31,17.397,2.63,16.467,2,15.509c0-0.165,0-0.33,0-0.495
	c24.581,0.057,49.161,0.132,73.742,0.135c1.956,0,2.96,0.871,3.863,2.44c6.538,11.365,13.134,22.696,19.722,34.033
	c0.435,0.749,0.952,1.45,1.673,2.541c0.722-1.091,1.238-1.792,1.674-2.542c6.588-11.336,13.184-22.667,19.722-34.033
	c0.902-1.569,1.907-2.439,3.863-2.439c24.58-0.003,49.161-0.078,73.741-0.135C200,15.18,200,15.344,200,15.509z M162.298,20.751
	l-3.429-0.064L101,120.673L43.143,20.707l-3.441,0.044L101,126.661L162.298,20.751z"/>
</svg>
