<?xml version="1.0" encoding="utf-8"?>
<!-- Generator: Adobe Illustrator 16.0.0, SVG Export Plug-In . SVG Version: 6.00 Build 0)  -->
<!DOCTYPE svg PUBLIC "-//W3C//DTD SVG 1.1//EN" "http://www.w3.org/Graphics/SVG/1.1/DTD/svg11.dtd">
<svg version="1.1" id="图层_1" xmlns="http://www.w3.org/2000/svg" xmlns:xlink="http://www.w3.org/1999/xlink" x="0px" y="0px"
	 width="200px" height="200px" viewBox="0 0 200 200" enable-background="new 0 0 200 200" xml:space="preserve">
<path fill-rule="evenodd" clip-rule="evenodd" d="M52.732,69.039c15.712-8.625,31.424-17.25,47.608-26.134
	c15.935,8.746,31.895,17.505,48.884,26.83c-16.696,9.64-32.469,18.748-48.807,28.181c-15.87-9.108-31.8-18.252-47.73-27.395
	C52.702,70.027,52.717,69.533,52.732,69.039z"/>
<path fill-rule="evenodd" clip-rule="evenodd" d="M104.051,154.986c0-17.947,0-34.689,0-51.868
	c15.647-9.009,31.281-18.011,47.727-27.48c0,18.19,0,35.233,0,53.065C136.411,137.165,120.74,145.795,104.051,154.986z"/>
<path fill-rule="evenodd" clip-rule="evenodd" d="M96.847,155.076c-16.558-9.126-32.078-17.681-47.708-26.296
	c0-17.491,0-34.652,0-53.006c16.438,9.461,32.048,18.446,47.708,27.459C96.847,120.392,96.847,137.107,96.847,155.076z"/>
<path fill-rule="evenodd" clip-rule="evenodd" d="M14.52,56.205c8.988,5.201,17.977,10.401,27.066,15.661
	c0,19.992,0,39.572,0,59.545c-9.142,5.291-18.274,10.576-28.128,16.279c0-30.841,0-60.693,0-90.544
	C13.812,56.832,14.166,56.518,14.52,56.205z"/>
<path fill-rule="evenodd" clip-rule="evenodd" d="M96.422,37.172c-4.88,2.756-9.906,5.644-14.977,8.45
	c-10.489,5.805-21.058,11.47-31.475,17.401c-3.64,2.072-6.591,1.879-10.144-0.356c-7.155-4.502-14.606-8.534-23.053-13.403
	C43.697,34.032,69.655,19.346,96.422,4.203C96.422,15.61,96.422,26.097,96.422,37.172z"/>
<path fill-rule="evenodd" clip-rule="evenodd" d="M104.354,4.272c26.802,15.142,52.677,29.759,79.533,44.932
	c-9.834,5.723-18.91,11.005-28.25,16.441c-17.137-9.444-34.139-18.814-51.283-28.263C104.354,26.527,104.354,15.951,104.354,4.272z"
	/>
<path fill-rule="evenodd" clip-rule="evenodd" d="M96.583,162.62c0,11.655,0,22.376,0,34.176
	c-26.084-14.749-51.421-29.074-77.79-43.983c10.334-5.944,19.621-11.285,29.299-16.853C64.28,144.86,80.394,153.72,96.583,162.62z"
	/>
<path fill-rule="evenodd" clip-rule="evenodd" d="M152.642,135.949c9.771,5.631,18.904,10.894,28.037,16.157
	c-0.027,0.473-0.055,0.945-0.081,1.418c-25.093,14.231-50.186,28.464-76.034,43.125c0-11.751,0-22.722,0-34.249
	C120.387,153.695,136.384,144.894,152.642,135.949z"/>
<path fill-rule="evenodd" clip-rule="evenodd" d="M185.045,146.46c-8.454-4.919-16.909-9.839-25.607-14.899
	c0-19.844,0-39.549,0-59.963c8.696-4.989,17.521-10.053,26.347-15.116c0.418,0.25,0.835,0.501,1.253,0.752
	c-0.002,29.667,0.005,59.333-0.006,89C186.369,146.309,185.707,146.384,185.045,146.46z"/>
</svg>
