<?xml version="1.0" encoding="utf-8"?>
<!-- Generator: Adobe Illustrator 16.0.0, SVG Export Plug-In . SVG Version: 6.00 Build 0)  -->
<!DOCTYPE svg PUBLIC "-//W3C//DTD SVG 1.1 Tiny//EN" "http://www.w3.org/Graphics/SVG/1.1/DTD/svg11-tiny.dtd">
<svg version="1.1" baseProfile="tiny" id="图层_1"
	 xmlns="http://www.w3.org/2000/svg" xmlns:xlink="http://www.w3.org/1999/xlink" x="0px" y="0px" width="200px" height="200px"
	 viewBox="0 0 200 200" overflow="scroll" xml:space="preserve">
<path fill-rule="evenodd" d="M49.152,197.904c0-1.909-0.001-3.309,0-4.709c0.047-62.267,0.122-124.532,0.067-186.797
	c-0.003-3.509,0.93-4.525,4.479-4.518c43.728,0.089,87.455,0.015,131.182-0.001c8.029-0.003,11.475,3.421,11.473,11.394
	c-0.01,57.792-0.029,115.583-0.055,173.374c-0.004,8.093-3.33,11.453-11.377,11.455c-43.854,0.018-87.709,0.022-131.565,0.021
	C52.11,198.119,50.865,197.995,49.152,197.904z M103.191,151.091c1.733-0.713,3.161-1.236,4.53-1.878
	c5.665-2.658,9.525-6.809,10.585-13.161c1.993-11.925-4.438-21.56-16.761-22.951c-10.477-1.185-21.15-0.615-31.738-0.802
	c-0.198-0.002-0.402,0.271-0.634,0.437c0,22.791,0,45.598,0,68.418c4.206,0,8.083,0,12.386,0c0-9.721,0-19.121,0-28.443
	c8.209-1.179,8.209-1.179,11.764,5.324c3.8,6.953,7.564,13.923,11.441,20.831c0.566,1.01,1.631,2.398,2.532,2.452
	c4.397,0.255,8.817,0.115,14.074,0.115C115.062,170.9,109.184,161.093,103.191,151.091z M138.211,153.452
	c6.427-0.428,12.182-0.515,17.854-1.249c11.402-1.482,17.866-8.267,18.544-18.916c0.646-10.152-4.329-18.047-14.742-19.688
	c-11.085-1.748-22.489-1.464-33.972-2.078c0,23.908,0,46.699,0,69.721c4.135,0,8.009,0,12.316,0
	C138.211,171.864,138.211,162.728,138.211,153.452z"/>
<path fill-rule="evenodd" d="M36.378,197.995c-9.659,0-19.221,0.297-28.751-0.126c-4.764-0.213-7.606-4.47-7.619-9.927
	c-0.032-13.303,0.037-26.604,0.045-39.903c0.031-44.64,0.051-89.276,0.082-133.914C0.141,5.02,3.236,1.929,12.336,1.917
	c7.903-0.01,15.806-0.002,24.042-0.002C36.378,67.42,36.378,132.557,36.378,197.995z"/>
<path fill-rule="evenodd" d="M81.466,142.109c0-6.215-0.112-11.438,0.111-16.649c0.036-0.859,1.511-2.334,2.369-2.367
	c4.323-0.176,8.687-0.242,12.988,0.173c5.621,0.538,8.829,3.936,8.87,8.687c0.045,5.054-3.074,8.631-8.732,9.275
	C92.064,141.797,86.994,141.819,81.466,142.109z"/>
<path fill-rule="evenodd" d="M138.291,142.572c0-6.552-0.062-12.016,0.075-17.476c0.018-0.69,1.074-1.949,1.635-1.94
	c4.95,0.073,9.97-0.068,14.824,0.735c4.638,0.767,6.861,4.069,6.89,8.354c0.027,4.304-2.135,7.808-6.6,8.674
	C149.812,141.943,144.326,142.025,138.291,142.572z"/>
</svg>
