<?xml version="1.0" encoding="utf-8"?>
<!-- Generator: Adobe Illustrator 16.0.0, SVG Export Plug-In . SVG Version: 6.00 Build 0)  -->
<!DOCTYPE svg PUBLIC "-//W3C//DTD SVG 1.1//EN" "http://www.w3.org/Graphics/SVG/1.1/DTD/svg11.dtd">
<svg version="1.1" id="图层_1" xmlns="http://www.w3.org/2000/svg" xmlns:xlink="http://www.w3.org/1999/xlink" x="0px" y="0px"
	 width="200px" height="200px" viewBox="0 0 200 200" enable-background="new 0 0 200 200" xml:space="preserve">
<path fill-rule="evenodd" clip-rule="evenodd" d="M0,135.288c0-25.934,0-51.867,0-77.8c66.667,0,133.333,0,200,0
	c0,25.933,0,51.866,0,77.8C133.333,135.288,66.667,135.288,0,135.288z M188.919,68.57c-0.267,0-0.462,0-0.657,0
	c-21.797,0-43.596,0-65.395,0c-0.68,0-0.681,0-0.681,0.67c0,14.382,0,28.764,0,43.146c0,0.709,0.001,0.71,0.696,0.71
	c6.933,0,13.865,0.001,20.798-0.003c0.824,0,0.794,0.145,0.794-0.814c0.002-10.616,0-21.232,0.002-31.848c0-0.7,0.001-0.7,0.709-0.7
	c3.15,0,6.3-0.004,9.449,0.002c0.977,0.001,0.889-0.144,0.889,0.87c0.002,10.565,0,21.132,0.002,31.697
	c0,0.947-0.021,0.793,0.814,0.794c3.199,0.006,6.399,0.003,9.6,0.003c0.765,0,0.765,0,0.765-0.745c0-10.633,0-21.265,0-31.897
	c0-0.225,0-0.45,0-0.723c0.28,0,0.477,0,0.674,0c3.234,0,6.467,0,9.699,0c0.686,0,0.686,0,0.686,0.667
	c0,10.699,0.003,21.399-0.01,32.097c0,0.479,0.124,0.616,0.608,0.612c3.282-0.021,6.566-0.011,9.85-0.011
	c0.708,0,0.708-0.001,0.708-0.692c0-14.383,0-28.765,0-43.146C188.919,69.059,188.919,68.861,188.919,68.57z M88.912,113.078
	c7.441,0,14.811,0,22.171,0c0-14.873,0-29.674,0-44.475c-14.821,0-29.595,0-44.396,0c0,18.536,0,37.039,0,55.559
	c7.419,0,14.804,0,22.225,0C88.912,120.476,88.912,116.83,88.912,113.078z M11.081,68.593c0,0.248,0,0.444,0,0.64
	c0,14.398,0,28.796,0,43.193c0,0.67,0,0.671,0.681,0.671c6.933,0,13.865,0.001,20.797-0.001c0.895,0,0.787,0.09,0.788-0.813
	c0.001-10.65,0.004-21.298-0.008-31.946c-0.001-0.477,0.122-0.621,0.61-0.618c3.233,0.022,6.466,0.012,9.699,0.012
	c0.76,0,0.761,0,0.761,0.742c0,10.648,0,21.297,0,31.945c0,0.678,0.001,0.679,0.684,0.679c3.299,0,6.599-0.01,9.898,0.011
	c0.491,0.004,0.613-0.149,0.612-0.622c-0.012-14.432-0.009-28.862-0.01-43.293c0-0.194-0.024-0.388-0.038-0.6
	C40.724,68.593,25.947,68.593,11.081,68.593z"/>
<path fill-rule="evenodd" clip-rule="evenodd" d="M88.944,101.865c0-7.39,0-14.729,0-22.1c3.678,0,7.333,0,11.009,0
	c0,7.373,0,14.711,0,22.1C96.29,101.865,92.64,101.865,88.944,101.865z"/>
</svg>
