<?xml version="1.0" encoding="utf-8"?>
<!-- Generator: Adobe Illustrator 16.0.0, SVG Export Plug-In . SVG Version: 6.00 Build 0)  -->
<!DOCTYPE svg PUBLIC "-//W3C//DTD SVG 1.1//EN" "http://www.w3.org/Graphics/SVG/1.1/DTD/svg11.dtd">
<svg version="1.1" id="图层_1" xmlns="http://www.w3.org/2000/svg" xmlns:xlink="http://www.w3.org/1999/xlink" x="0px" y="0px"
	 width="200px" height="200px" viewBox="0 0 200 200" enable-background="new 0 0 200 200" xml:space="preserve">
<path fill-rule="evenodd" clip-rule="evenodd" d="M133.222,49.252c0-6.955-0.11-13.443,0.058-19.924
	c0.063-2.395,0.667-4.802,1.263-7.143c0.192-0.752,1.147-1.311,1.752-1.958c0.623,0.628,1.618,1.162,1.807,1.9
	c1.284,5.035,2.723,10.063,3.483,15.187c0.912,6.139,1.542,12.366,1.616,18.563c0.039,3.226-1.143,6.553-2.232,9.674
	c-0.635,1.817-2.8,1.676-3.635-0.378c-1.385-3.403-2.373-6.981-3.325-10.541C133.505,52.755,133.431,50.763,133.222,49.252z
	 M199.407,159.972c-1.293-3.092-2.646-6.158-3.868-9.277c-5.685-14.49-11.53-28.922-16.935-43.517
	c-4.801-12.966-8.857-26.206-13.683-39.161c-5.226-14.033-10.696-27.989-16.624-41.735c-1.928-4.47-5.281-8.491-8.604-12.152
	c-4.376-4.821-9.714-4.607-14.266,0.121c-1.917,1.991-3.503,4.333-5.054,6.64c-6.476,9.632-12.599,19.516-19.404,28.907
	c-5.042,6.958-11.532,12.362-20.306,14.484c-2.276,0.551-4.635,1.882-6.327,3.509c-4.684,4.504-9.258,9.167-13.442,14.132
	c-2.865,3.4-6.048,5.937-10.169,7.574c-13.492,5.361-26.934,10.848-40.379,16.327c-3.177,1.296-6.291,2.746-9.755,4.267
	c0.851,0.934,1.231,1.525,1.762,1.908c12.362,8.899,24.756,17.757,37.104,26.677c2.498,1.805,4.905,2.127,7.817,0.906
	c4.984-2.088,9.897-2.139,13.637,2.465c3.118,3.839,6.547,7.636,8.689,12.014c5.157,10.533,9.735,21.356,14.331,32.155
	c1.206,2.834,2.602,3.948,5.512,2.619c3.684-1.683,7.59-2.987,11.038-5.059c8.264-4.964,14.671-12.039,21.034-19.18
	c7.482-8.398,15.02-16.778,23.006-24.689c7.618-7.548,18.016-8.318,26.825-2.156c4.917,3.438,9.166,7.827,13.737,11.761
	c4.446,3.827,8.922,7.621,13.384,11.429C198.782,160.617,199.095,160.294,199.407,159.972z"/>
</svg>
