<?xml version="1.0" encoding="utf-8"?>
<!-- Generator: Adobe Illustrator 16.0.0, SVG Export Plug-In . SVG Version: 6.00 Build 0)  -->
<!DOCTYPE svg PUBLIC "-//W3C//DTD SVG 1.1//EN" "http://www.w3.org/Graphics/SVG/1.1/DTD/svg11.dtd">
<svg version="1.1" id="图层_1" xmlns="http://www.w3.org/2000/svg" xmlns:xlink="http://www.w3.org/1999/xlink" x="0px" y="0px"
	 width="200px" height="200px" viewBox="0 0 200 200" enable-background="new 0 0 200 200" xml:space="preserve">
<path d="M120.334,122.791c-2.979,0.743-5.955,1.486-8.702,2.172c-0.431,1.305-0.892,2.695-1.229,3.721
	c-2.082,0.815-3.818-1.977-5.123,0.568c-4.062-2.787-8.404-5.255-12.051-8.506c-1.621-1.445,0.868-4.309,3.764-3.829
	c3.718,0.612,7.51,1.334,10.988,2.717c4.922,1.955,9.582,3.466,14.752,0.837c1.496-0.762,3.429-0.842,5.172-0.906
	c9.757-0.365,15.711-5.932,20.506-13.857c-1.258,2.575-2.27,5.314-3.844,7.679c-1.604,2.407-3.766,4.444-5.691,6.654
	c2.6,2.957,5.355,2.778,7.947,1.202c6.105-3.715,12.283-7.37,18.046-11.578c5.995-4.378,11.528-9.386,17.284-14.094
	c0.904-0.739,1.914-1.346,2.875-2.013c0.191,0.209,0.385,0.419,0.576,0.629c-2.258,2.309-4.402,4.742-6.793,6.903
	c-6.711,6.065-13.328,12.265-20.384,17.908c-3.071,2.459-7.046,3.88-10.756,5.425c-2.795,1.162-5.519,0.43-8.039-1.359
	c-1.303-0.924-2.938-1.381-4.424-2.049c-0.261,0.443-0.521,0.889-0.782,1.334c1.667,1.062,3.541,1.9,4.961,3.228
	c4.402,4.11,9.54,7.903,9.152,14.917c-0.223,4.015-0.443,8.072-1.213,12.004c-1.184,6.055-5.348,9.768-10.563,12.236
	c-3.313-3.211-6.468-6.269-9.621-9.325c-0.183,0.159-0.365,0.319-0.547,0.478c0.922,1.028,1.887,2.021,2.758,3.09
	c1.192,1.461,2.664,2.834,3.353,4.518c0.528,1.294,0.036,3.007-0.003,4.531c-1.467-0.19-3.301,0.111-4.335-0.658
	c-5.195-3.873-9.938-8.389-15.306-11.987c-6.158-4.131-12.799-7.542-19.235-11.257c-1.054-0.609-2.149-1.146-3.199-1.762
	c-5.756-3.373-6.473-5.41-4.945-11.979c0.849-3.646,1.2-7.404,2.213-11.335c0.426,2.233,1.025,4.452,1.236,6.707
	c0.264,2.825,0.241,5.681,0.282,8.522c0.047,3.203,1.646,5.088,4.486,6.574c7.78,4.065,15.59,8.129,23.019,12.782
	c4.292,2.688,7.87,6.519,11.769,9.837c0.662,0.564,1.314,1.139,1.973,1.707c0.229-0.191,0.455-0.382,0.682-0.572
	c-0.746-0.989-1.412-2.053-2.252-2.953c-8.742-9.391-19.393-15.896-31.188-20.719c-2.914-1.191-6.112-2.304-6.931-5.675
	c4.013,1.763,7.979,3.703,12.093,5.245c3.412,1.277,5.76,0.039,6.685-3.563c1.601-6.228,5.007-10.972,10.532-14.217
	c4.796-0.291,9.557-0.313,13.996,2.114C129.93,120.85,125.332,120.268,120.334,122.791z M143.863,152.277
	c1.365-7.26,1.109-10.243-1.641-13.848c-2.524-3.306-5.051-6.679-8.024-9.557c-7.19-6.956-17.878-5.88-20.755,5.12
	c-0.438,1.674-0.979,3.417-1.91,4.842c-1.577,2.415-0.855,4.349,1.217,5.501c2.514,1.396,5.38,2.148,8.061,3.259
	c1.601,0.662,3.25,1.306,4.676,2.261c1.85,1.242,3.496,2.783,5.156,4.137C136.855,148.844,138.324,148.654,143.863,152.277z
	 M142.366,155.936c-0.353-3.332-1.966-4.918-4.673-4.584c-2.422,0.297-3.154,1.67-2.358,4.049
	C137.623,155.574,139.836,155.742,142.366,155.936z"/>
<path d="M91.175,100.764c-5.767,2.561-11.534,5.12-17.507,7.771c4.531,8.061,8.593,16.01,8.745,25.226
	c0.036,2.175-0.491,4.357-1.089,6.48c0.502-20.157-13.95-36.652-27.895-43.466c11.698-18.354,18.302-38.083,15.99-60.783
	c-10.374-0.277-19.83,3.296-30.444,4.95c1.015-0.913,1.356-1.42,1.827-1.614c8.141-3.343,16.278-6.762,25.272-6.952
	c5.135-0.108,7.597,2.221,8.102,7.441c1.419,14.675-1.087,28.575-8.351,41.494c-2.442,4.344-5.04,8.6-7.734,13.179
	c2.41,1.712,4.78,3.397,7.401,5.261c6.334-8.222,11.611-16.569,15.276-26.023c3.658-9.434,5.017-19.262,6.01-29.222
	c0.318,0.029,0.635,0.058,0.953,0.087c-0.141,2.129-0.284,4.258-0.421,6.387c-0.14,2.161-0.164,4.337-0.431,6.482
	c-1.319,10.58-4.609,20.587-9.691,29.898c-2.243,4.109-5.657,7.565-8.29,11.484c-0.874,1.3-1.482,3.178-1.318,4.694
	c0.386,3.562,2.174,4.485,5.284,2.669c7.685-4.49,15.298-9.113,22.806-13.892c3.606-2.295,6.934-5.034,10.342-7.632
	c2.674-2.038,3.1-4.643,2.508-7.943c-2.055-11.453-6.971-21.496-14.438-30.385c0.284-0.216,0.567-0.432,0.852-0.648
	c2.5,2.893,5.537,5.482,7.383,8.745c3.648,6.439,7.187,13.049,9.758,19.964c2.979,8.013,1.725,10.491-5.004,15.554
	c-1.161,0.875-2.141,1.991-3.205,2.996C99.635,95.565,95.405,98.164,91.175,100.764z"/>
<path d="M38.707,43.664c5.95,3.984,9.344,9.641,9.138,16.631c-0.25,8.462-1.094,16.945-2.346,25.32
	c-0.577,3.86,2.016,5.59,3.511,8.298c-4.681-1.164-9.196-2.551-13.813-3.362c-4.771-0.838-9.641-1.117-14.777-1.675
	c-2.357,5.305-1.966,10.714-2.39,15.927c14.591-4.639,27.444-2.894,39.742,5.789c8.208,5.797,14.174,13.17,19.074,21.652
	c0.971,1.682,1.487,3.627,1.874,5.486c-3.343-4.348-6.494-8.861-10.071-13.008c-6.723-7.795-14.453-14.315-24.819-16.674
	c-8.06-1.834-16.111-1.259-24.051,0.938c-4.879,1.352-6.313,0.418-6.87-4.717c-0.559-5.16-0.603-10.257,1.924-15.049
	c1.389-2.635,3.312-4.082,6.445-3.981c6.338,0.204,12.73-0.484,18.942,1.479c0.834,0.264,1.824,0.037,3.128,0.037
	C46.579,71.78,48.018,57.256,38.707,43.664z"/>
<path d="M91.175,100.764c4.23-2.6,8.46-5.198,12.688-7.798c3.537-2.11,7.074-4.221,11.134-6.642
	c1.746,3.816,3.082,7.172,4.782,10.331c1.65,3.063,3.193,6.431,5.648,8.753c3.615,3.421,8.316,3.521,12.92,1.66
	c2.318-0.938,4.572-2.043,6.854-3.071c0.146,0.271,0.291,0.538,0.437,0.808c-3.847,2.234-7.521,4.903-11.615,6.512
	c-1.897,0.746-4.795-0.139-6.914-1.043c-4.889-2.084-7.401-6.369-9.154-11.19c-1.004-2.762-2.18-5.462-3.286-8.212
	c-0.683,0.161-1.114,0.155-1.421,0.351c-6.229,4.007-12.239,8.408-18.722,11.945c-5.108,2.786-8.828,5.722-6.964,12.45
	c-3.104-0.588-4.727-2.678-4.417-4.82c0.353-2.441,1.871-4.89,3.419-6.926C87.627,102.475,89.606,101.773,91.175,100.764z"/>
<path d="M151.13,141.52c2.863-6.729,8.083-11.453,12.937-16.512c5.771-6.017,11.356-12.215,17.016-18.342
	c0.42-0.454,0.783-0.962,1.511-1.122C174.837,119.956,161.716,129.654,151.13,141.52z"/>
<rect x="6" y="26" fill="none" width="187" height="148"/>
</svg>
