<?xml version="1.0" encoding="utf-8"?>
<!-- Generator: Adobe Illustrator 16.0.0, SVG Export Plug-In . SVG Version: 6.00 Build 0)  -->
<!DOCTYPE svg PUBLIC "-//W3C//DTD SVG 1.1//EN" "http://www.w3.org/Graphics/SVG/1.1/DTD/svg11.dtd">
<svg version="1.1" id="图层_1" xmlns="http://www.w3.org/2000/svg" xmlns:xlink="http://www.w3.org/1999/xlink" x="0px" y="0px"
	 width="200px" height="200px" viewBox="0 0 200 200" enable-background="new 0 0 200 200" xml:space="preserve">
<path fill-rule="evenodd" clip-rule="evenodd" d="M189.645,39.019c-3.543,27.77-7.013,54.871-10.451,81.975
	c-1.146,9.034-1.908,18.129-3.491,27.084c-0.481,2.729-2.524,6.109-4.853,7.437c-22.75,12.963-45.677,25.614-68.678,38.126
	c-1.778,0.968-4.969,1.058-6.716,0.106c-23.175-12.598-46.242-25.398-69.216-38.361c-1.631-0.92-3.116-3.403-3.343-5.318
	c-4.285-36.178-8.306-72.39-12.577-108.571c-0.528-4.474,0.955-6.366,5.095-7.811C40.857,24.809,66.153,15.505,91.65,6.791
	c3.992-1.364,9.164-1.676,13.11-0.39c26.702,8.7,53.219,17.972,79.806,27.026C187.623,34.469,190.45,35.553,189.645,39.019z
	 M161.989,148.684c-21.4-45.828-42.206-90.384-63.718-136.451C77.528,58.431,57.41,103.236,36.867,148.986
	c6.544,0,11.646-0.243,16.715,0.071c4.66,0.287,7.25-1.307,8.785-5.912c2.399-7.191,5.242-14.27,8.459-21.132
	c0.874-1.863,3.728-3.882,5.744-3.958c15.36-0.569,30.74-0.599,46.108-0.977c3.764-0.094,5.982,1.244,7.382,4.763
	c2.877,7.229,5.845,14.437,9.184,21.46c1.011,2.123,3.191,4.867,5.139,5.139C149.563,149.159,154.909,148.684,161.989,148.684z"/>
<path fill-rule="evenodd" clip-rule="evenodd" d="M100.023,57.271c6.563,13.703,13.126,27.405,20.087,41.941
	c-13.409,0-25.7,0-39.495,0c6.258-14.817,11.993-28.393,17.728-41.97C98.903,57.25,99.463,57.262,100.023,57.271z"/>
</svg>
