<?xml version="1.0" encoding="utf-8"?>
<!-- Generator: Adobe Illustrator 16.0.0, SVG Export Plug-In . SVG Version: 6.00 Build 0)  -->
<!DOCTYPE svg PUBLIC "-//W3C//DTD SVG 1.1//EN" "http://www.w3.org/Graphics/SVG/1.1/DTD/svg11.dtd">
<svg version="1.1" id="图层_1" xmlns="http://www.w3.org/2000/svg" xmlns:xlink="http://www.w3.org/1999/xlink" x="0px" y="0px"
	 width="200px" height="200px" viewBox="0 0 200 200" enable-background="new 0 0 200 200" xml:space="preserve">
<path fill-rule="evenodd" clip-rule="evenodd" d="M105.645,76.335c1.196,1.094,2.433,2.146,3.58,3.288
	c3.779,3.759,7.391,7.701,11.333,11.278c2.694,2.444,4.041,4.992,3.484,8.725c-0.619,4.151,0.619,7.854,3.615,10.979
	c4.166,4.345,11.499,5.793,16.529,3.088c5.735-3.084,8.831-9.43,7.575-15.53c-1.234-6-6.961-11.346-13.131-11.016
	c-4.917,0.263-8.09-1.6-11.183-4.979c-4.271-4.665-8.856-9.044-13.37-13.481c-1.545-1.519-2.102-3.067-1.83-5.329
	c1.15-9.565-6.162-16.735-15.739-15.86c-1.478,0.135-3.512-0.201-4.492-1.146c-6.591-6.356-12.969-12.934-19.398-19.457
	c-0.208-0.21-0.226-0.608-0.52-1.463c2.2-2.28,4.568-4.783,6.99-7.232c3.28-3.316,6.53-6.667,9.921-9.867
	c4.748-4.48,10.519-4.871,15.932-1.145c1.498,1.031,2.909,2.231,4.197,3.517c26.288,26.249,52.586,52.486,78.755,78.852
	c2.14,2.156,4.027,5.028,4.861,7.907c1.396,4.818-0.466,8.934-4.129,12.568c-23.762,23.582-47.396,47.294-71.071,70.962
	c-3.298,3.297-6.57,6.62-9.905,9.88c-5.984,5.851-12.848,6.006-18.949,0.172c-6.139-5.869-12.061-11.967-18.068-17.974
	c-21.202-21.202-42.358-42.449-63.642-63.568c-3.26-3.235-4.401-6.825-4.14-11.244c0.217-3.667,2.289-6.127,4.681-8.516
	c12.493-12.478,24.971-24.972,37.462-37.452c5.998-5.992,12.014-11.964,18.201-18.124c1.115,0.872,2.071,1.478,2.857,2.255
	c5.565,5.507,11.094,11.052,16.639,16.58c1.312,1.308,2.722,2.588,2.149,4.72c-2.058,7.647,1.28,12.843,7.913,16.952
	c0,17.204,0,34.639,0,52.342c-1.179,1.058-2.574,2.229-3.88,3.495c-4.948,4.793-6.021,11.135-2.893,16.845
	c2.753,5.024,9.548,8.289,14.792,7.105c6.528-1.474,11.532-6.805,11.744-13.223c0.142-4.271-1.231-8.396-4.857-11.003
	c-3.216-2.312-3.372-5.068-3.253-8.679c0.35-10.646,0.148-21.309,0.16-31.965c0.004-4.272,0-8.544,0-12.816
	C104.926,76.631,105.285,76.483,105.645,76.335z"/>
</svg>
