<?xml version="1.0" encoding="utf-8"?>
<!-- Generator: Adobe Illustrator 16.0.0, SVG Export Plug-In . SVG Version: 6.00 Build 0)  -->
<!DOCTYPE svg PUBLIC "-//W3C//DTD SVG 1.1//EN" "http://www.w3.org/Graphics/SVG/1.1/DTD/svg11.dtd">
<svg version="1.1" id="图层_1" xmlns="http://www.w3.org/2000/svg" xmlns:xlink="http://www.w3.org/1999/xlink" x="0px" y="0px"
	 width="200px" height="200px" viewBox="0 0 200 200" enable-background="new 0 0 200 200" xml:space="preserve">
<g>
	<path fill-rule="evenodd" clip-rule="evenodd" d="M99.228,200c-0.93,0-1.86,0-2.79,0c-2.06-0.66-4.099-1.391-6.181-1.972
		c-19.826-5.531-39.641-11.109-59.508-16.492c-3.538-0.959-4.987-2.67-5.308-6.358c-3.895-44.859-7.904-89.709-11.958-134.557
		C12.428,28.93,11.119,17.26,9.926,5.581c0-1.86,0-3.721,0-5.582c21.339,0.043,42.677,0.128,64.016,0.122
		C111.207,0.11,148.475,0.043,185.74,0c0,1.86,0,3.721,0,5.582c-0.268,1.354-0.663,2.695-0.785,4.062
		c-2.254,25.275-4.445,50.556-6.706,75.831c-2.705,30.205-5.491,60.404-8.154,90.613c-0.258,2.922-1.511,4.445-4.303,5.167
		c-5.843,1.507-11.646,3.169-17.456,4.811C131.964,190.698,115.598,195.354,99.228,200z M142.838,47.338
		c0-1.084,0.002-2.168-0.002-3.252c-0.016-8.039-0.02-8.033-7.602-10.116c-11.202-3.078-22.378-6.253-33.621-9.174
		c-2.14-0.556-4.668-0.62-6.795-0.061c-12.433,3.268-24.78,6.855-37.2,10.177c-3.333,0.891-4.943,2.827-5.332,6.124
		c-0.544,4.613-1.28,9.206-1.758,13.825c-1.083,10.459-3.275,20.983-2.813,31.382c0.859,19.314,3.378,38.554,4.993,57.844
		c0.312,3.719,1.859,5.488,5.344,6.423c11.967,3.212,23.839,6.787,35.847,9.831c2.994,0.757,6.519,0.646,9.534-0.118
		c11.559-2.931,22.977-6.408,34.515-9.421c3.534-0.923,5.22-2.678,5.557-6.294c1.581-16.96,3.223-33.915,4.998-50.855
		c0.458-4.384-1.098-6.461-5.466-7.406c-13.623-2.945-27.158-6.297-40.772-9.298c-2.34-0.516-4.95-0.435-7.331-0.026
		c-6.409,1.098-12.756,2.545-19.137,3.81c-5.891,1.168-6.381,0.75-5.717-5.004c0.71-6.154,1.561-12.292,2.248-18.449
		c0.332-2.976,1.703-4.774,4.704-5.512c4.811-1.183,9.509-2.942,14.372-3.762c3.67-0.62,7.694-0.873,11.261-0.028
		c9.638,2.28,19.105,5.276,28.662,7.91C143.398,59.211,142.855,60.505,142.838,47.338z"/>
	<path fill-rule="evenodd" clip-rule="evenodd" d="M124.277,113.168c-0.34,3.509-0.97,9.209-1.419,14.923
		c-0.24,3.052-1.628,4.736-4.646,5.478c-6.018,1.48-11.96,3.273-17.978,4.76c-1.594,0.394-3.44,0.515-5.016,0.127
		c-6.167-1.518-12.347-3.071-18.353-5.111c-1.623-0.55-3.567-2.729-3.793-4.376c-0.986-7.205-1.364-14.491-2.027-21.742
		c-0.247-2.694,1.025-3.992,3.532-4.523c6.973-1.477,13.909-3.149,20.914-4.449c2.045-0.38,4.316,0.031,6.413,0.441
		c5.321,1.045,10.605,2.283,15.9,3.465C124.82,103.727,124.816,103.734,124.277,113.168z"/>
</g>
</svg>
