<?xml version="1.0" encoding="utf-8"?>
<!-- Generator: Adobe Illustrator 16.0.0, SVG Export Plug-In . SVG Version: 6.00 Build 0)  -->
<!DOCTYPE svg PUBLIC "-//W3C//DTD SVG 1.1//EN" "http://www.w3.org/Graphics/SVG/1.1/DTD/svg11.dtd">
<svg version="1.1" id="图层_1" xmlns="http://www.w3.org/2000/svg" xmlns:xlink="http://www.w3.org/1999/xlink" x="0px" y="0px"
	 width="200px" height="200px" viewBox="0 0 200 200" enable-background="new 0 0 200 200" xml:space="preserve">
<path fill-rule="evenodd" clip-rule="evenodd" d="M188.216,0.443c-1.03,11.967-1.984,23.398-3.003,34.824
	c-2.805,31.466-5.646,62.93-8.453,94.396c-1.384,15.492-2.788,30.981-4.032,46.485c-0.263,3.267-1.682,4.771-4.806,5.62
	c-21.725,5.901-43.396,12.007-65.129,17.883c-2.048,0.555-4.522,0.423-6.595-0.141c-21.571-5.855-43.082-11.933-64.661-17.758
	c-3.328-0.898-4.26-2.785-4.524-5.825c-2.241-25.825-4.566-51.642-6.844-77.463c-2.749-31.148-5.395-62.304-8.311-93.436
	C11.482,1.013,12.48-0.006,16.378,0c55.76,0.097,111.52,0.063,167.279,0.079C184.924,0.079,186.191,0.275,188.216,0.443z
	 M126.699,103.977c-0.625,7.824-1.419,14.739-1.65,21.672c-0.173,5.178-2.266,7.77-7.473,8.652
	c-5.09,0.864-10.011,2.68-15.052,3.888c-1.665,0.398-3.568,0.602-5.197,0.211c-6.302-1.511-12.617-3.066-18.745-5.141
	c-1.601-0.542-3.213-2.864-3.645-4.652c-0.829-3.43-0.608-7.103-1.266-10.591c-0.222-1.174-1.749-2.949-2.743-2.991
	c-6.266-0.275-12.549-0.141-19.073-0.141c0,2-0.104,3.416,0.017,4.813c0.73,8.396,1.736,16.777,2.17,25.188
	c0.183,3.528,1.351,5.132,4.753,6.026c12.697,3.337,25.303,7.019,37.996,10.371c2.075,0.549,4.541,0.579,6.611,0.031
	c12.69-3.355,25.296-7.031,37.983-10.397c3.029-0.803,4.079-2.274,4.331-5.358c1.387-16.962,3.024-33.903,4.531-50.855
	c0.368-4.133,0.57-8.28,0.891-13.049c-27.056,0-53.554,0-80.46,0c-0.664-7.699-1.278-14.828-1.935-22.443
	c2.847,0,4.771-0.003,6.694,0c24.327,0.037,48.652,0.111,72.979,0.036c1.65-0.006,4.609-0.924,4.738-1.76
	c1.021-6.632,1.504-13.348,2.159-20.111c-37.311,0-73.84,0-110.227,0c-0.23,0.808-0.42,1.127-0.394,1.427
	c1.837,20.662,3.752,41.318,5.484,61.989c0.294,3.502,2.462,3.179,4.737,3.18c13.461,0.004,26.922,0.004,40.383,0.005
	C105.485,103.978,115.673,103.977,126.699,103.977z"/>
</svg>
