<?xml version="1.0" encoding="utf-8"?>
<!-- Generator: Adobe Illustrator 16.0.0, SVG Export Plug-In . SVG Version: 6.00 Build 0)  -->
<!DOCTYPE svg PUBLIC "-//W3C//DTD SVG 1.1//EN" "http://www.w3.org/Graphics/SVG/1.1/DTD/svg11.dtd">
<svg version="1.1" id="图层_1" xmlns="http://www.w3.org/2000/svg" xmlns:xlink="http://www.w3.org/1999/xlink" x="0px" y="0px"
	 width="100px" height="100px" viewBox="0 0 100 100" enable-background="new 0 0 100 100" xml:space="preserve">
<path fill-rule="evenodd" clip-rule="evenodd" d="M39.772,99.242c0.338-0.26,0.661-0.539,1.013-0.777
	c6.909-4.66,12.463-10.596,16.619-17.813c0.622-1.08,1.312-1.482,2.553-1.459c3.924,0.076,7.852,0.082,11.775,0.002
	c3.691-0.075,6.583-2.335,7.544-5.71c0.931-3.271-0.281-6.92-3.22-8.593c-1.381-0.787-3.109-1.142-4.72-1.305
	c-2.235-0.228-4.508-0.089-6.764-0.118c-0.136-0.001-0.271-0.098-0.615-0.231c1.082-6.556,1.132-13.176-0.065-20.089
	c1.999,0,3.789,0.002,5.579,0c0.98-0.002,1.969,0.064,2.94-0.03c4.262-0.416,7.331-3.877,7.192-8.053
	c-0.139-4.178-3.381-7.492-7.669-7.614c-4.119-0.117-8.243-0.06-12.364-0.031c-0.886,0.006-1.447-0.267-1.894-1.053
	c-4.265-7.514-10-13.667-17.193-18.46c-0.195-0.13-0.361-0.304-0.729-0.616c0.476-0.072,0.737-0.146,0.998-0.146
	c10.6,0.004,21.206-0.243,31.794,0.096c11.122,0.356,19.536,5.71,24.438,15.717c4.899,10.001,3.833,19.803-2.517,28.957
	c-0.73,1.053-0.839,1.68-0.034,2.771c12.813,17.391,2,42.227-19.406,44.634c-1.409,0.159-2.835,0.244-4.254,0.247
	c-9.813,0.021-19.628,0.013-29.44,0.014c-0.486,0-0.972,0-1.457,0C39.843,99.468,39.808,99.355,39.772,99.242z"/>
<path fill-rule="evenodd" clip-rule="evenodd" d="M2.422,89.398c-0.001-2.895,0.029-5.79-0.016-8.684
	c-0.018-1.124,0.368-1.495,1.529-1.527c3.865-0.104,7.801,0.069,11.575-0.61c12.522-2.253,21.156-13.648,20.649-26.789
	C35.69,39.645,25.79,29.04,13.509,27.713c-3.157-0.341-6.366-0.258-9.55-0.257c-1.188,0-1.531-0.44-1.525-1.544
	c0.03-5.79,0.015-11.579,0.02-17.368C2.455,7.772,2.496,7.108,3.598,7.09c7.48-0.124,14.886,0.114,22.078,2.626
	c19.82,6.923,32.962,27.365,30.659,47.866C53.573,82.18,34.448,99.395,9.674,99.578c-1.962,0.014-3.926-0.045-5.887,0.019
	C2.75,99.63,2.402,99.22,2.413,98.229C2.443,95.286,2.423,92.342,2.422,89.398z"/>
</svg>
