<?xml version="1.0" encoding="utf-8"?>
<!-- Generator: Adobe Illustrator 16.0.0, SVG Export Plug-In . SVG Version: 6.00 Build 0)  -->
<!DOCTYPE svg PUBLIC "-//W3C//DTD SVG 1.1//EN" "http://www.w3.org/Graphics/SVG/1.1/DTD/svg11.dtd">
<svg version="1.1" id="图层_1" xmlns="http://www.w3.org/2000/svg" xmlns:xlink="http://www.w3.org/1999/xlink" x="0px" y="0px"
	 width="200px" height="200px" viewBox="0 0 200 200" enable-background="new 0 0 200 200" xml:space="preserve">
<path fill-rule="evenodd" clip-rule="evenodd" d="M4.142,98.247c10.838,0.984,21.829-1.537,32.86,1.761
	c1.306-6.564,2.434-13.417,4.065-20.148c2.328-9.606,4.896-19.159,7.622-28.66c1.187-4.138,4.076-5.988,8.722-5.765
	c7.576,0.364,15.185,0.236,22.773,0.048c3.686-0.091,6.252,1.448,7.333,4.671c2.31,6.882,4.474,13.836,6.21,20.88
	c1.666,6.758,2.713,13.668,4.05,20.508c0.073,0.374,0.305,0.718,1.224,1.207c0.675-3.022,1.298-6.058,2.036-9.065
	c2.572-10.49,4.99-21.025,7.859-31.434c1.641-5.953,3.195-6.717,9.389-6.717c7.391,0,14.789,0.198,22.168-0.07
	c4.402-0.161,7.002,1.875,8.252,5.655c1.932,5.843,3.814,11.735,5.156,17.732c2.293,10.257,4.146,20.612,6.203,30.923
	c0.146,0.737,0.439,1.445,0.834,2.718c2.789-4.073,6.516-4.303,10.492-4.25c7.285,0.096,14.574-0.068,21.861-0.095
	c0.652-0.002,1.307,0.212,2.701,0.454c-2.268,1.515-4.047,2.532-5.635,3.793c-6.143,4.883-6.695,12.09-7.908,19.072
	c-1.018,5.846-2.051,11.723-3.654,17.422c-1.125,4-3.916,6.102-8.682,5.793c-6.957-0.455-13.963-0.1-20.949-0.129
	c-5.473-0.021-7.398-1.221-9.053-6.559c-2.006-6.465-3.83-13.002-5.352-19.598c-1.971-8.543-3.561-17.172-5.799-25.804
	c-0.531,2.697-1.002,5.407-1.602,8.089c-2.523,11.315-5.076,22.622-7.648,33.924c-0.246,1.08-0.684,2.119-1.074,3.16
	c-2.266,6.027-3.379,6.803-9.752,6.799c-7.291-0.004-14.581-0.092-21.868,0.016c-3.031,0.047-5.215-1.068-6.14-3.898
	c-2.162-6.619-4.487-13.219-6.104-19.979c-2.207-9.223-3.818-18.588-5.834-28.636c-0.509,1.417-0.959,2.312-1.151,3.259
	c-1.876,9.292-3.499,18.644-5.632,27.878c-1.315,5.688-3.284,11.234-5.166,16.775c-1.066,3.141-3.21,4.779-6.893,4.656
	c-7.282-0.244-14.577-0.064-21.866-0.074c-5.506-0.008-7.153-1.086-8.562-6.529c-1.443-5.572-2.162-11.344-3.813-16.846
	c-1.672-5.568-3.82-11.043-6.32-16.293c-1.101-2.311-3.589-3.961-5.447-5.912C4.08,98.736,4.11,98.491,4.142,98.247z"/>
</svg>
