<?xml version="1.0" encoding="utf-8"?>
<!-- Generator: Adobe Illustrator 16.0.0, SVG Export Plug-In . SVG Version: 6.00 Build 0)  -->
<!DOCTYPE svg PUBLIC "-//W3C//DTD SVG 1.1//EN" "http://www.w3.org/Graphics/SVG/1.1/DTD/svg11.dtd">
<svg version="1.1" id="图层_1" xmlns="http://www.w3.org/2000/svg" xmlns:xlink="http://www.w3.org/1999/xlink" x="0px" y="0px"
	 width="200px" height="200px" viewBox="0 0 200 200" enable-background="new 0 0 200 200" xml:space="preserve">
<path fill-rule="evenodd" clip-rule="evenodd" d="M41.943,74.395c2.821-3.106,5.297-5.862,7.802-8.589
	c16.22-17.652,32.447-35.295,48.667-52.948c1.629-1.773,1.713-1.772,3.355,0.014c14.73,16.034,29.473,32.06,44.207,48.091
	c3.56,3.874,7.106,7.759,10.65,11.646c0.432,0.474,0.804,1,1.432,1.787C119.315,74.395,80.944,74.395,41.943,74.395z M15.282,91.202
	c17.649,20.486,35.278,40.989,52.918,61.484c10.124,11.761,20.255,23.515,30.375,35.279c0.387,0.451,0.686,0.978,1.025,1.47
	c0.267,0,0.533,0,0.8,0c3.819-4.527,7.598-9.086,11.459-13.578c16.888-19.647,33.802-39.273,50.701-58.911
	c11.729-13.631,23.45-27.267,35.184-40.896c0.301-0.351,0.67-0.641,1.008-0.96c0-0.266,0-0.533,0-0.799
	c-7.489-10.268-14.934-20.569-22.484-30.794c-6.245-8.458-12.581-16.852-18.98-25.194c-0.719-0.937-2.054-1.815-3.193-1.949
	c-11.151-1.314-22.321-2.472-33.486-3.658c-5.485-0.583-10.973-1.128-16.458-1.701c-0.323-0.035-0.635-0.179-0.951-0.273
	c-2.132,0-4.265,0-6.397,0c-4.215,0.504-8.427,1.043-12.646,1.506c-9.445,1.037-18.893,2.039-28.34,3.05
	c-3.04,0.326-6.074,0.752-9.122,0.919c-1.904,0.104-3.166,0.83-4.295,2.367C29.164,36.589,15.874,54.572,2.596,72.563
	c-0.435,0.588-0.898,1.153-1.348,1.729c0,0.267,0,0.533,0,0.799C5.927,80.46,10.633,85.807,15.282,91.202z"/>
</svg>
