<?xml version="1.0" encoding="utf-8"?>
<!-- Generator: Adobe Illustrator 16.0.0, SVG Export Plug-In . SVG Version: 6.00 Build 0)  -->
<!DOCTYPE svg PUBLIC "-//W3C//DTD SVG 1.1//EN" "http://www.w3.org/Graphics/SVG/1.1/DTD/svg11.dtd">
<svg version="1.1" id="图层_1" xmlns="http://www.w3.org/2000/svg" xmlns:xlink="http://www.w3.org/1999/xlink" x="0px" y="0px"
	 width="200px" height="200px" viewBox="0 0 200 200" enable-background="new 0 0 200 200" xml:space="preserve">
<path fill-rule="evenodd" clip-rule="evenodd" d="M198.662,197c-65.468,0-130.91,0-196.325,0c0-64.026,0-128.027,0-192
	c65.469,0,130.911,0,196.325,0C198.662,69.027,198.662,133.026,198.662,197z M184.146,19.897c-1.07-0.15-1.632-0.298-2.192-0.298
	c-53.749,0.014-107.497,0.06-161.246,0.014c-3.495-0.003-3.893,1.685-3.889,4.568c0.08,50.866,0.129,101.733,0.023,152.599
	c-0.008,4.184,0.842,5.659,5.439,5.646c51.875-0.154,103.749-0.061,155.626-0.035c6.371,0.003,6.396,0.001,6.398-6.618
	c0.025-50.434,0.041-100.869,0.051-151.304C184.357,23.054,184.229,21.64,184.146,19.897z"/>
<path fill-rule="evenodd" clip-rule="evenodd" d="M49,139.373c7.535-28.567,17.357-55.917,23.89-85.13
	c5.419,0,11.832-0.141,18.224,0.157c0.924,0.043,2.155,2.066,2.559,3.384c5.925,19.385,11.732,38.806,17.573,58.218
	c2.275,7.56,4.564,15.116,7.057,23.37c-5.399,0-10.37,0.147-15.318-0.129c-0.948-0.052-2.257-1.618-2.626-2.742
	c-1.75-5.322-3.055-10.798-4.932-16.069c-0.46-1.29-2.438-2.806-3.789-2.879c-5.888-0.316-11.805-0.019-17.704-0.196
	c-2.585-0.077-3.542,1.123-4.146,3.34c-1.36,4.995-3.064,9.906-4.24,14.941c-0.706,3.021-2.231,3.936-5.137,3.781
	C56.839,139.229,53.25,139.373,49,139.373z M91.649,102.678c-2.935-11.228-5.738-21.956-8.541-32.684
	c-0.365,0.075-0.73,0.149-1.096,0.224c-2.737,10.673-5.474,21.347-8.324,32.46C79.807,102.678,85.347,102.678,91.649,102.678z"/>
<path fill-rule="evenodd" clip-rule="evenodd" d="M143.08,139.293c-4.708,0-9.137-0.003-13.567,0.001
	c-3.157,0.003-2.745-2.338-2.748-4.295c-0.026-12.975-0.018-25.949-0.011-38.926c0.005-5.912,0.125-11.824,0.011-17.732
	c-0.052-2.683,0.666-3.979,3.637-3.83c4.13,0.208,8.277,0.052,12.679,0.052C143.08,96.419,143.08,117.67,143.08,139.293z"/>
<path fill-rule="evenodd" clip-rule="evenodd" d="M143.812,57.772c-0.122,4.581-4.121,8.434-8.718,8.402
	c-4.718-0.033-8.955-4.389-8.705-8.95c0.253-4.585,4.231-8.143,9.033-8.075C140.129,49.215,143.936,53.127,143.812,57.772z"/>
</svg>
