<?xml version="1.0" encoding="utf-8"?>
<!-- Generator: Adobe Illustrator 16.0.0, SVG Export Plug-In . SVG Version: 6.00 Build 0)  -->
<!DOCTYPE svg PUBLIC "-//W3C//DTD SVG 1.1//EN" "http://www.w3.org/Graphics/SVG/1.1/DTD/svg11.dtd">
<svg version="1.1" id="图层_1" xmlns="http://www.w3.org/2000/svg" xmlns:xlink="http://www.w3.org/1999/xlink" x="0px" y="0px"
	 width="100px" height="100px" viewBox="0 0 100 100" enable-background="new 0 0 100 100" xml:space="preserve">
<path d="M4.282,22.071C19.455,36.408,33.997,50.147,48.86,64.192c15.448-14.104,30.748-28.073,46.544-42.497
	c0.114,1.646,0.243,2.637,0.245,3.627c0.011,16.566-0.071,33.133,0.074,49.697c0.026,3.19-0.925,4.182-4.115,4.171
	C63.755,79.089,35.897,79.098,8.04,79.18c-2.965,0.011-4.032-0.832-4.006-3.947c0.139-16.459,0.062-32.921,0.07-49.38
	C4.108,24.926,4.191,23.999,4.282,22.071z"/>
<path d="M87.104,22.006C74.244,33.76,61.732,45.193,48.933,56.891C36.797,45.417,24.817,34.093,12.837,22.767
	c0.078-0.253,0.154-0.507,0.23-0.761C37.522,22.006,61.977,22.006,87.104,22.006z"/>
</svg>
