<?xml version="1.0" encoding="utf-8"?>
<!-- Generator: Adobe Illustrator 16.0.0, SVG Export Plug-In . SVG Version: 6.00 Build 0)  -->
<!DOCTYPE svg PUBLIC "-//W3C//DTD SVG 1.1//EN" "http://www.w3.org/Graphics/SVG/1.1/DTD/svg11.dtd">
<svg version="1.1" id="图层_1" xmlns="http://www.w3.org/2000/svg" xmlns:xlink="http://www.w3.org/1999/xlink" x="0px" y="0px"
	 width="100px" height="100px" viewBox="0 0 100 100" enable-background="new 0 0 100 100" xml:space="preserve">
<g>
	<path fill-rule="evenodd" clip-rule="evenodd" d="M38.114,85.691c0,2.422-0.001,4.733,0.001,7.044c0,0.599,0.023,1.198,0.014,1.798
		c-0.031,2.013-1.485,3.095-3.417,2.476c-4.587-1.469-8.821-3.654-12.722-6.466C12.562,83.745,6.241,74.754,3.158,63.538
		C1.773,58.503,1.239,53.369,1.545,48.13c0.618-10.563,4.208-19.973,10.897-28.137c7.511-9.168,17.137-14.88,28.798-17.138
		c3.813-0.738,7.663-1.002,11.518-0.777c11.275,0.659,21.226,4.66,29.72,12.146c7.822,6.895,12.887,15.463,15.293,25.591
		c1.171,4.929,1.465,9.939,1.054,14.991c-0.786,9.626-4.148,18.264-10.06,25.882c-5.921,7.628-13.485,13.019-22.603,16.21
		c-1.863,0.652-3.298,0.073-3.703-1.464c-0.089-0.336-0.084-0.7-0.084-1.052c0.003-4.276,0.006-8.553,0.025-12.83
		c0.014-3.384-0.661-6.53-3.113-9.128c1.889-0.36,3.727-0.643,5.53-1.07c4.563-1.08,8.652-3.023,11.723-6.718
		c2.354-2.829,3.652-6.144,4.276-9.719c0.648-3.718,0.887-7.458,0.066-11.193c-0.659-3.003-2.008-5.667-4.015-7.986
		c-0.37-0.429-0.424-0.782-0.264-1.306c1.232-3.996,0.855-7.928-0.584-11.788c-0.092-0.247-0.559-0.484-0.864-0.5
		c-2.343-0.123-4.515,0.597-6.572,1.602c-1.897,0.927-3.696,2.061-5.562,3.062c-0.336,0.18-0.816,0.302-1.172,0.212
		c-5.679-1.417-11.424-1.827-17.228-1.1c-1.982,0.248-3.94,0.701-5.895,1.128c-0.535,0.117-0.919,0.033-1.349-0.251
		c-2.748-1.818-5.602-3.441-8.825-4.251c-1.094-0.275-2.251-0.323-3.386-0.389c-0.244-0.015-0.651,0.288-0.742,0.534
		c-1.453,3.92-1.829,7.895-0.522,11.946c0.083,0.257-0.017,0.687-0.194,0.897c-3.723,4.405-5.02,9.509-4.572,15.184
		c0.286,3.631,0.9,7.157,2.534,10.445c2.504,5.044,6.691,8.058,11.946,9.65c2.43,0.736,4.956,1.15,7.454,1.716
		c-0.18,0.209-0.466,0.511-0.72,0.839c-1.1,1.429-1.687,3.077-2.043,4.826c-0.058,0.286-0.213,0.697-0.431,0.787
		c-3.198,1.318-6.427,1.765-9.649,0.078c-1.709-0.896-2.97-2.271-3.96-3.905c-1.332-2.194-3.024-4.027-5.508-4.859
		c-1.023-0.345-2.175-0.364-3.271-0.389c-0.376-0.009-0.929,0.334-1.088,0.667c-0.116,0.242,0.217,0.78,0.466,1.096
		c0.28,0.355,0.656,0.665,1.047,0.899c2.75,1.642,4.38,4.17,5.563,7.034c1.573,3.813,4.568,5.752,8.473,6.446
		C32.6,86.52,35.253,86.289,38.114,85.691z"/>
	<path fill-rule="evenodd" clip-rule="evenodd" d="M36.646,82.23c-0.396-0.419-0.645-0.684-0.894-0.945
		c0.363-0.26,0.701-0.649,1.1-0.729c0.262-0.053,0.613,0.348,0.924,0.544C37.443,81.432,37.112,81.763,36.646,82.23z"/>
	<path fill-rule="evenodd" clip-rule="evenodd" d="M33.06,80.695c0.431,0.433,0.716,0.718,1.002,1.005
		c-0.358,0.229-0.712,0.626-1.076,0.637c-0.322,0.01-0.657-0.411-0.986-0.641C32.3,81.411,32.601,81.128,33.06,80.695z"/>
	<path fill-rule="evenodd" clip-rule="evenodd" d="M25.183,78.236c0.75-0.014,1.396,0.536,1.342,1.05
		c-0.026,0.238-0.299,0.578-0.525,0.642c-0.433,0.12-1.238-0.644-1.181-1.11C24.848,78.574,25.102,78.357,25.183,78.236z"/>
	<path fill-rule="evenodd" clip-rule="evenodd" d="M29.221,82.096c-0.467-0.487-0.808-0.843-1.148-1.196
		c0.26-0.186,0.504-0.494,0.783-0.528c0.587-0.075,1.115,0.206,1.192,0.824C30.074,81.405,29.626,81.674,29.221,82.096z"/>
	<path fill-rule="evenodd" clip-rule="evenodd" d="M24.317,76.472c-0.434,0.324-0.771,0.632-0.811,0.597
		c-0.356-0.31-0.685-0.662-0.951-1.05c-0.036-0.054,0.443-0.568,0.481-0.544C23.425,75.718,23.772,76.027,24.317,76.472z"/>
	<path fill-rule="evenodd" clip-rule="evenodd" d="M22.279,73.784c-0.39,0.3-0.656,0.556-0.694,0.525
		c-0.327-0.259-0.621-0.563-0.888-0.884c-0.019-0.021,0.337-0.442,0.388-0.417C21.445,73.19,21.771,73.44,22.279,73.784z"/>
	<path fill-rule="evenodd" clip-rule="evenodd" d="M19.265,71.161c0.208,0.244,0.414,0.488,0.621,0.731
		c-0.17,0.127-0.415,0.4-0.498,0.358c-0.282-0.146-0.571-0.365-0.727-0.633c-0.074-0.128,0.146-0.426,0.234-0.647
		C19.019,71.033,19.142,71.097,19.265,71.161z"/>
</g>
</svg>
