<?xml version="1.0" standalone="no"?><!DOCTYPE svg PUBLIC "-//W3C//DTD SVG 1.1//EN" "http://www.w3.org/Graphics/SVG/1.1/DTD/svg11.dtd"><svg class="icon" width="200px" height="200.00px" viewBox="0 0 1024 1024" version="1.1" xmlns="http://www.w3.org/2000/svg"><path fill="#333333" d="M758.9632 140.672c-1.664-1.5104-3.4816-2.816-5.1712-4.3008-0.512-1.3312-0.9216-2.7392-1.4592-4.0704l-2.3296 0.9216c-64.2048-54.8608-147.0208-85.248-234.88-85.248-11.776 0-23.4496 0.5888-35.0208 1.6384l-9.7536 0.2304-0.128 1.1264c-74.9056 8.9344-144.384 39.7824-198.9376 89.7024C205.2608 201.088 168.8832 281.6 168.8832 367.36c0 142.5408 101.5296 247.1424 192.7424 341.1456 13.696 14.1312 27.0592 27.904 39.424 41.216l0 53.8624 234.9312 0 0-50.688c3.1488-3.3024 6.6304-7.0656 10.4704-11.4688 20.48-23.2704 41.3952-47.2576 61.6192-71.04l0.128 0.0512c0.0512-0.128 0.1024-0.2816 0.1792-0.4096 56.1152-65.92 106.496-129.8688 124.2112-170.5472 9.1392-20.9408 16.2304-42.24 20.992-63.3344 5.1712-22.9376 7.808-46.0544 7.808-68.7872C861.3632 281.6 825.0112 201.088 758.9632 140.672zM444.2368 689.9456c-68.992-192.7168-146.6624-410.7264-17.92-578.304 12.6464-3.6352 25.6256-6.3232 38.8096-8.3712-13.3376 149.4272-6.9376 300.7232-0.4608 447.3856 2.9184 66.2272 5.7344 134.4256 6.8608 201.7024l-5.2736 0C459.264 732.1088 451.8912 711.3728 444.2368 689.9456zM540.3392 744.2688l-17.5872 0c-1.2288-65.5616-4.1472-131.6864-6.9632-195.84-6.5024-147.2-13.2096-299.1616 0.6656-447.4624 24.448 1.408 48.4352 5.5296 71.552 12.3392C640.3328 299.1104 602.0352 493.8496 540.3392 744.2688zM220.0832 367.36c0-71.2192 30.464-138.2912 85.7856-188.9024 11.5712-10.5728 24.0896-19.9168 37.12-28.4928-73.8304 157.4656-22.9888 339.7888 32.5376 499.2256C298.7008 569.2416 220.0832 478.8224 220.0832 367.36zM607.4368 708.2496c-2.6624 3.0464-5.1712 5.7344-7.5264 8.2432 46.3616-190.2848 89.088-398.08 44.288-590.0544 23.7312 10.5216 45.9008 24.0128 66.0992 40.2688 22.3488 64.256 29.8752 138.6752 21.9392 221.7984-8.0128 83.7888-31.5392 171.5712-67.9168 254.336C642.944 667.8528 622.7456 690.8416 607.4368 708.2496zM803.6352 424.832c-4.0448 17.92-10.112 36.1472-17.9712 54.144-5.0176 11.52-14.0544 26.2656-25.4208 42.752 11.0592-43.0336 18.9184-86.144 22.9632-128.3584 4.6848-48.9472 4.4288-95.36-0.6912-138.9568 17.9456 34.9696 27.6992 73.2416 27.6992 112.9216C810.1632 386.2784 807.9872 405.6064 803.6352 424.832z"  /><path fill="#333333" d="M446.4384 976l149.5552 0 21.7856-166.784-195.0464 0L446.4384 976zM559.4624 860.416l-8.4224 64.384-60.16 0-9.1648-64.384L559.4624 860.416z"  /></svg>