<?xml version="1.0" standalone="no"?><!DOCTYPE svg PUBLIC "-//W3C//DTD SVG 1.1//EN" "http://www.w3.org/Graphics/SVG/1.1/DTD/svg11.dtd"><svg class="icon" width="200px" height="151.03px" viewBox="0 0 1356 1024" version="1.1" xmlns="http://www.w3.org/2000/svg"><path fill="#333333" d="M1181.864 489.6l-224-224c-12.8-12.8-32.64-12.8-45.44 0s-12.8 32.64 0 45.44l201.6 200.96-201.6 201.6c-12.8 12.8-12.8 32.64 0 45.44 5.658 5.892 13.602 9.552 22.4 9.552 8.798 0 16.742-3.661 22.39-9.542l224.010-224.010c12.8-12.8 12.8-33.28 0.64-45.44zM452.904 265.6c-12.8-12.8-32.64-12.8-45.44 0l-224 224c-12.8 12.8-12.8 32.64 0 45.44l224 224c6.4 5.76 14.72 8.96 23.040 8.96s16.64-3.2 22.4-9.6c12.8-12.8 12.8-32.64 0-45.44l-201.6-200.96 201.6-201.6c12.16-12.16 12.16-32.64 0-44.8zM786.984 129.28c-2.605-0.782-5.598-1.233-8.697-1.233-14.562 0-26.801 9.946-30.295 23.415l-192.048 704.217c-4.48 17.28 5.12 34.56 22.4 39.040 2.56 0.64 5.76 1.28 8.32 1.28 14.080 0 26.88-9.6 30.72-23.68l192-704c0.715-2.512 1.126-5.397 1.126-8.378 0-14.609-9.868-26.913-23.303-30.609z"  /></svg>