<?xml version="1.0" standalone="no"?><!DOCTYPE svg PUBLIC "-//W3C//DTD SVG 1.1//EN" "http://www.w3.org/Graphics/SVG/1.1/DTD/svg11.dtd"><svg class="icon" width="200px" height="200.00px" viewBox="0 0 1024 1024" version="1.1" xmlns="http://www.w3.org/2000/svg"><path fill="#333333" d="M93.374132 955.639053c-7.068999 0-13.869892-2.701528-18.872836-7.713682-5.226025-5.206582-8.05956-9.142218-7.809873-16.501836l9.442047-291.181779c0.221034-6.77224 3.02694-12.410658 7.807826-17.194614L612.792079 94.594425c31.224142-31.253818 82.041528-31.061436 113.313765 0.221034l207.752648 207.877491c15.137769 15.098883 23.464411 35.259038 23.464411 56.677861 0 21.417799-8.326643 41.566698-23.464411 56.694233L499.449661 850.516854c-10.450003 10.411117-27.343765 10.429537-37.754882 0-10.460236-10.450003-10.460236-27.335578 0-37.766139l434.408831-434.422134c5.04183-5.04183 7.80885-11.727089 7.808849-18.882046 0-7.136537-2.77623-13.849426-7.820106-18.883069l-207.752647-207.772091c-10.419304-10.44898-27.382651-10.44898-37.793768 0L129.158127 654.17714l-8.201799 253.734912 264.286222-2.177596c14.724353-1.785669 27.074635 11.084453 27.555589 25.816992 0.478907 14.754029-11.094686 20.649296-25.837458 21.109784l-292.734135 2.977821h-0.852414z"  /><path fill="#333333" d="M386.135896 952.746166c-6.827499 0-13.69593-2.594081-18.900466-7.818059L83.9239 661.621692c-10.441816-10.450003-10.441816-27.335578 0-37.775348 10.446933-10.450003 27.333532-10.450003 37.765115 0l283.32995 283.316647c10.43977 10.450003 10.43977 27.334555 0 37.765116-5.226025 5.223978-12.053524 7.818059-18.883069 7.818059zM310.587246 688.329984c-6.819313 0-13.666254-2.601244-18.882046-7.836479-10.440793-10.422374-10.440793-27.324322 0-37.754882l472.185202-472.192365c10.446933-10.43977 27.342742-10.43977 37.799908 0 10.429537 10.43977 10.429537 27.324322 0 37.774325L329.470315 680.492482c-5.206582 5.236258-12.053524 7.837502-18.883069 7.837502z"  /></svg>