<?xml version="1.0" standalone="no"?><!DOCTYPE svg PUBLIC "-//W3C//DTD SVG 1.1//EN" "http://www.w3.org/Graphics/SVG/1.1/DTD/svg11.dtd"><svg class="icon" width="200px" height="147.13px" viewBox="0 0 1392 1024" version="1.1" xmlns="http://www.w3.org/2000/svg"><path fill="#333333" d="M1369.380751 297.348032L749.167944 16.92178c-42.985046-24.562883-65.501022-20.46907-104.392254 0L22.515976 297.348032c-28.656697 28.656697-28.656697 71.641743 0 98.251534L307.036043 526.601611V798.840235c0 4.093814 2.046907 12.281442 4.093814 20.46907 26.60979 110.532975 188.31544 204.690695 386.865414 204.690695 196.503067 0 358.208717-94.15772 384.818506-204.690695 2.046907-8.187628 4.093814-16.375256 4.093814-20.46907V532.742332v-4.093814l286.566974-126.908231c24.562883-28.656697 24.562883-75.735557-4.093814-104.392255zM1023.453476 784.511887c-14.328349 94.15772-163.752556 178.080905-327.505112 178.080904-165.799463 0-313.176764-83.923185-327.505113-178.080904v-225.159765l274.285532 120.76751c38.891232 20.46907 71.641743 18.422163 104.392254 0L1023.453476 561.399029v223.112858z m270.191717-403.24067L736.886503 624.853144c-22.515976 14.328349-49.125767 14.328349-81.876278 0L96.204627 381.271217c-22.515976-22.515976-20.46907-32.750511 2.046907-55.266488L655.010225 74.235174c40.938139-20.46907 45.031953-18.422163 81.876278 0l556.75869 243.581928c22.515976 22.515976 22.515976 40.938139 0 63.454115zM104.392255 549.117587H79.829371c-10.234535 0-18.422163 8.187628-18.422162 18.422163v327.505112c0 10.234535 8.187628 18.422163 18.422162 18.422163h24.562884c10.234535 0 18.422163-8.187628 18.422162-18.422163v-327.505112c0-10.234535 4.093814-18.422163-6.140721-18.422163h-12.281441zM757.355572 199.096498l274.285532 114.62679 14.328348-32.750511-274.285531-114.62679-14.328349 32.750511z m347.974182 100.298441c-10.234535 0-18.422163 8.187628-18.422163 18.422163s8.187628 18.422163 18.422163 18.422162 18.422163-8.187628 18.422162-18.422162-8.187628-18.422163-18.422162-18.422163z"  /></svg>