<?xml version="1.0" standalone="no"?><!DOCTYPE svg PUBLIC "-//W3C//DTD SVG 1.1//EN" "http://www.w3.org/Graphics/SVG/1.1/DTD/svg11.dtd"><svg class="icon" width="200px" height="200.00px" viewBox="0 0 1024 1024" version="1.1" xmlns="http://www.w3.org/2000/svg"><path fill="#333333" d="M950.191 242.165c-8.093-8.145-20.034-9.873-36.766-10.022H693.171c-0.727-39.241-16.319-76.05-44.094-103.933-28.453-28.562-66.325-44.377-106.678-44.532H481.04c-40.315 0.078-78.217 15.819-106.725 44.327-27.828 27.828-43.492 64.609-44.294 103.866H110.759c-16.263 0.144-28.764 1.921-36.916 10.124C65.674 250.216 64 262.729 64 278.99v612.857c0 14.105 1.279 28.443 10.556 37.775 9.348 9.404 23.749 10.7 37.918 10.7h798.778c14.176 0 28.575-1.275 37.877-10.522 9.315-9.259 10.598-23.582 10.598-37.672 0.182-204.064 0.273-410.262 0.273-612.868 0-16.341-1.669-28.903-9.809-37.095z m-549.489-11.108c0.95-20.275 9.215-39.286 23.502-53.873 15.131-15.449 35.363-24.248 56.977-24.784h60.491c21.829-0.178 43.271 8.501 58.804 23.854 14.65 14.479 23.439 34.277 24.445 54.803H400.702z m-264.18 259.746V304.936h750.943l-0.244 185.867H136.522z m454.893 117.576v-49.398h295.791v307.733H136.251V558.439h296.333v49.94h158.831z"  /></svg>