<?xml version="1.0" standalone="no"?><!DOCTYPE svg PUBLIC "-//W3C//DTD SVG 1.1//EN" "http://www.w3.org/Graphics/SVG/1.1/DTD/svg11.dtd"><svg class="icon" width="200px" height="200.00px" viewBox="0 0 1024 1024" version="1.1" xmlns="http://www.w3.org/2000/svg"><path fill="#333333" d="M442.3 472.3H94c-16.6 0-30-13.4-30-30V94c0-16.6 13.4-30 30-30h348.3c16.6 0 30 13.4 30 30v348.3c0 16.6-13.4 30-30 30z m-318.3-60h288.3V124H124v288.3zM930 472.3H581.7c-16.6 0-30-13.4-30-30V94c0-16.6 13.4-30 30-30H930c16.6 0 30 13.4 30 30v348.3c0 16.6-13.4 30-30 30z m-318.3-60H900V124H611.7v288.3zM442.3 960H94c-16.6 0-30-13.4-30-30V581.7c0-16.6 13.4-30 30-30h348.3c16.6 0 30 13.4 30 30V930c0 16.6-13.4 30-30 30zM124 900h288.3V611.7H124V900zM930 960H581.7c-16.6 0-30-13.4-30-30V581.7c0-16.6 13.4-30 30-30H930c16.6 0 30 13.4 30 30V930c0 16.6-13.4 30-30 30z m-318.3-60H900V611.7H611.7V900z"  /></svg>