<?xml version="1.0" standalone="no"?><!DOCTYPE svg PUBLIC "-//W3C//DTD SVG 1.1//EN" "http://www.w3.org/Graphics/SVG/1.1/DTD/svg11.dtd"><svg class="icon" width="200px" height="200.00px" viewBox="0 0 1024 1024" version="1.1" xmlns="http://www.w3.org/2000/svg"><path fill="#333333" d="M861.264127 512.300852c36.771485-40.829917 63.153342-81.012082 78.502935-119.632681 17.761526-44.803415 17.115819-83.697237-1.893116-115.573225-19.09387-31.934317-53.999868-51.93279-103.751992-59.464323-42.708707-6.427386-92.203982-4.776793-147.766438 5.006014-18.404162-50.985208-41.516556-92.934622-68.789713-124.824937-31.762401-37.141922-67.369364-55.964616-105.817024-55.964616-38.519292 0-74.15593 18.922978-105.888655 56.252165-27.28646 32.090882-50.210565 74.068949-68.24429 124.953873-55.549154-10.084683-105.029078-11.849886-147.722436-5.4225-49.738821 7.531534-84.657098 27.530007-103.780645 59.492976-19.008936 31.878035-19.62599 70.756507-1.89414 115.558899 15.264659 38.476313 41.761126 78.660524 78.888721 119.560026-37.084617 40.931225-63.510476 81.041758-78.617545 119.389134-17.602913 44.675502-16.8559 83.451644 2.196015 115.241674 19.023262 31.950689 53.812603 52.03512 103.378485 59.72322 42.565445 6.613628 92.044346 4.9088 147.608849-5.148253 18.318204 50.827619 41.317011 92.733031 68.444858 124.725676 31.54853 37.157271 67.082838 55.977919 105.630782 55.977919 38.461987 0 74.068949-18.821671 105.845677-55.95029 27.230178-31.875988 50.297546-73.910337 68.718081-125.097136 55.490825 10.587126 104.885815 12.593829 147.292648 5.995551 49.308009-7.662517 84.197634-27.702945 103.751992-59.72322 19.007913-31.864732 19.639293-70.742181 1.879813-115.557876C923.98768 593.372286 897.775692 553.231053 861.264127 512.300852zM448.627159 888.172475c-19.827581-25.306362-36.913724-59.108213-50.901297-100.625792 38.534642-10.486842 76.966952-23.813359 114.511034-39.753399 37.643342 16.152888 76.03472 29.495778 114.438379 39.797401-14.230096 41.418318-31.531134 75.187423-51.559283 100.552114C534.215466 940.046936 489.269811 940.046936 448.627159 888.172475zM575.102688 136.058792c20.026102 25.548886 37.34249 59.421344 51.572586 100.837616-35.806507 9.671267-74.181513 22.883173-114.423029 39.424918-39.10667-15.925714-77.669964-29.366841-114.957195-40.040948 14.217816-41.000809 31.462572-74.68498 51.374064-100.235912C489.342466 83.895759 534.172487 83.924411 575.102688 136.058792zM731.905944 476.865805c15.666818 12.280698 29.969569 24.159236 42.766013 35.606962-8.694009 8.033977-17.790178 15.954367-27.158547 23.657816-5.105275 4.202719-10.31288 8.450463-15.57779 12.71151 0.458441-12.94073 0.701988-25.322735 0.701988-37.087687C732.637608 501.06802 732.395084 489.404376 731.905944 476.865805zM725.564515 395.020752c-4.632507-40.3418-11.93482-79.048357-21.806655-115.357308 44.602847-8.794293 83.912132-11.390421 116.921943-7.646144 33.700543 3.799536 56.280818 14.804171 67.068512 32.550347 11.002588 18.492166 9.798157 42.092677-3.745301 72.203462-13.068643 29.194926-35.075867 60.398602-65.531506 92.908016C789.74935 443.323874 758.589676 418.289712 725.564515 395.020752zM512.252245 680.552857c-26.484188-11.778254-52.794413-25.03314-78.258365-39.422871-29.02301-16.656355-53.856605-31.848359-73.898057-45.24753-2.210341-24.489764-3.314489-52.750411-3.314489-84.127026 0-31.302937 1.104147-59.364039 3.300162-83.523275 21.735024-14.216793 46.855144-29.437449 74.600045-45.160549 24.962531-13.57211 51.02921-26.65508 77.555353-38.921451 26.426883 12.380982 52.492538 25.449625 77.239152 38.718837 26.010397 14.935154 51.15917 30.070876 74.943876 45.061288 2.181689 24.691355 3.301186 52.838416 3.301186 83.825151 0 31.377638-1.119497 59.779501-3.329838 84.543511-22.033829 14.46034-46.954405 29.510104-74.383104 44.845371C565.446771 655.217842 539.337113 668.472727 512.252245 680.552857zM621.769544 329.773725c-9.740852-5.478781-20.62883-11.319813-32.509415-17.473977 18.794042-6.871501 36.942377-12.882402 54.258765-17.989723 4.245697 17.875113 7.918343 35.979446 10.973936 54.171784C644.021338 342.241688 633.104707 335.971891 621.769544 329.773725zM380.869962 294.439986c17.616216 5.350868 35.492352 11.347442 53.526077 17.947767-11.17655 5.66707-21.892613 11.462053-32.021298 17.300015-11.390421 6.254447-22.308075 12.496615-32.708959 18.694781C372.835985 330.032622 376.565936 311.99992 380.869962 294.439986zM292.626175 548.410258c-15.811104-12.151761-30.284747-24.230867-43.312458-36.09508 13.284561-11.965519 27.674293-23.843034 43.109844-35.606962-0.372483 11.44875-0.530073 23.098068-0.530073 35.047214C291.894512 524.409634 292.139082 536.64633 292.626175 548.410258zM320.35675 278.788517c-9.841136 37.429471-17.056468 76.119655-21.446451 115.300003-34.072003 24.272823-65.404616 49.624211-93.437066 75.546603-30.457686-32.464389-52.550867-63.668065-65.820078-92.933599-13.615089-30.012547-14.732539-53.553707-3.428076-72.018244 10.989285-18.11866 32.952506-28.893051 67.124793-32.909527 10.329253-1.191128 21.361517-1.808182 32.809243-1.808182C261.423523 269.964548 289.68417 272.934183 320.35675 278.788517zM139.96731 647.714961c13.126972-29.296233 34.990932-60.454884 65.033156-92.806709 28.333302 26.240641 59.82248 51.735291 93.909833 75.992765 4.389984 39.065737 11.562337 77.29748 21.390169 113.936959-44.544519 8.752338-83.782172 11.334139-116.734678 7.662517-33.943067-3.847631-55.792701-14.649652-66.924225-33.299407C125.406686 701.124382 126.497531 677.742858 139.96731 647.714961zM401.369855 694.037986c10.229992 6.055926 21.332864 12.107759 33.239032 18.178011-18.605753 6.857175-36.652781 12.753465-54.041824 17.689894-4.218068-17.805528-7.818059-35.681664-10.743692-53.484122C380.338866 682.661891 390.925992 688.571485 401.369855 694.037986zM643.534244 729.96115c-17.502629-4.923126-35.592636-10.830673-54.171784-17.675568 10.5728-5.4225 21.720697-11.418051 33.339316-18.004049 10.847046-5.995551 21.419845-12.021801 31.677467-17.989723C651.137409 695.445032 647.493415 713.390753 643.534244 729.96115zM703.543989 744.909607c9.611915-36.740786 16.797571-75.114768 21.476127-114.438379 33.898041-24.087605 65.246003-49.408293 93.406366-75.502601 30.113855 32.707936 51.963489 64.010873 65.087391 93.219101 13.487176 30.099529 14.72026 53.541427 3.759627 71.631434-10.860349 17.918092-33.368992 28.977985-66.896596 32.909527-9.841136 1.163499-20.370956 1.734504-31.275307 1.734504C763.581364 754.463194 734.862275 751.251036 703.543989 744.909607z"  /></svg>