<?xml version="1.0" standalone="no"?><!DOCTYPE svg PUBLIC "-//W3C//DTD SVG 1.1//EN" "http://www.w3.org/Graphics/SVG/1.1/DTD/svg11.dtd"><svg t="1504158479370" class="icon" style="" viewBox="0 0 1025 1024" version="1.1" xmlns="http://www.w3.org/2000/svg" p-id="2771" xmlns:xlink="http://www.w3.org/1999/xlink" width="200.1953125" height="200"><defs><style type="text/css"></style></defs><path d="M0 982.435452a875.765027 875.765027 0 0 1 394.031915-348.310913 465.938584 465.938584 0 0 0 131.343972-96.429751 171.245938 171.245938 0 0 0-113.05557 0 850.826298 850.826298 0 0 1 166.258192-55.696494c23.276147-4.156455 25.354374-11.222428 76.478768-55.696495a201.588058 201.588058 0 0 0-120.537189 0s39.070675-30.757766 204.497576-29.510829A183.299657 183.299657 0 0 0 894.053428 317.402683a128.434453 128.434453 0 0 0-113.05557-59.437303 198.262894 198.262894 0 0 1 138.409945 0A187.871757 187.871757 0 0 0 981.754625 26.450847S715.325872 78.406532 335.841548 452.487464A1211.19093 1211.19093 0 0 1 857.476626 26.450847S390.291106 33.932466 0 982.435452z" fill="#606060" p-id="2772"></path><path d="M20.782274 940.870904h955.984605a20.782274 20.782274 0 0 1 20.782274 20.782274 20.782274 20.782274 0 0 1-20.782274 20.782274H20.782274a20.782274 20.782274 0 0 1-20.782274-20.782274 20.782274 20.782274 0 0 1 20.782274-20.782274z" fill="#606060" p-id="2773"></path></svg>